<svg width="64" height="64" viewBox="0 0 64 64" fill="none" xmlns="http://www.w3.org/2000/svg">
<rect opacity="0.1" width="64" height="64" rx="8" fill="#30DA88"/>
<path d="M33.1301 45.2616C33.5879 45.3681 33.6299 45.9679 33.1839 46.1165L30.5506 46.9832C23.9339 49.1165 20.4506 47.3332 18.3006 40.7165L16.1672 34.1332C14.0339 27.5165 15.8006 24.0165 22.4172 21.8832L23.9679 21.3697C24.3708 21.2363 24.7559 21.6376 24.628 22.0423C24.4579 22.5802 24.3012 23.1605 24.1506 23.7832L22.5172 30.7665C20.6839 38.6165 23.3672 42.9499 31.2172 44.8165L33.1301 45.2616Z" fill="#23AF72"/>
<path d="M40.6157 17.3499L37.8323 16.6999C32.2657 15.3832 28.949 16.4665 26.999 20.4999C26.499 21.5165 26.099 22.7499 25.7657 24.1665L24.1323 31.1499C22.499 38.1165 24.649 41.5498 31.599 43.1998L34.399 43.8665C35.3657 44.0999 36.2657 44.2498 37.099 44.3165C42.299 44.8165 45.0657 42.3832 46.4657 36.3665L48.099 29.3998C49.7323 22.4332 47.599 18.9832 40.6157 17.3499ZM37.4823 34.2165C37.3323 34.7832 36.8323 35.1499 36.2657 35.1499C36.1657 35.1499 36.0657 35.1332 35.949 35.1165L31.099 33.8832C30.4323 33.7165 30.0323 33.0332 30.199 32.3665C30.3657 31.6999 31.049 31.2999 31.7157 31.4665L36.5657 32.6999C37.249 32.8665 37.649 33.5499 37.4823 34.2165ZM42.3657 28.5832C42.2157 29.1498 41.7157 29.5165 41.149 29.5165C41.049 29.5165 40.949 29.4999 40.8323 29.4832L32.749 27.4332C32.0823 27.2665 31.6823 26.5832 31.849 25.9165C32.0157 25.2499 32.699 24.8499 33.3657 25.0165L41.449 27.0665C42.1323 27.2165 42.5323 27.8998 42.3657 28.5832Z" fill="#23AF72"/>
</svg>
