<svg width="135" height="84" viewBox="0 0 135 84" fill="none" xmlns="http://www.w3.org/2000/svg">
<path d="M2.688 16.816H6.592V18H1.232V6.848H2.688V16.816ZM11.9623 18.144C11.1409 18.144 10.3943 17.9573 9.72225 17.584C9.06092 17.2107 8.53825 16.6827 8.15425 16C7.78092 15.3067 7.59425 14.5067 7.59425 13.6C7.59425 12.704 7.78625 11.9147 8.17025 11.232C8.56492 10.5387 9.09825 10.0107 9.77025 9.648C10.4423 9.27467 11.1943 9.088 12.0263 9.088C12.8583 9.088 13.6103 9.27467 14.2823 9.648C14.9543 10.0107 15.4823 10.5333 15.8663 11.216C16.2609 11.8987 16.4583 12.6933 16.4583 13.6C16.4583 14.5067 16.2556 15.3067 15.8503 16C15.4556 16.6827 14.9169 17.2107 14.2343 17.584C13.5516 17.9573 12.7943 18.144 11.9623 18.144ZM11.9623 16.864C12.4849 16.864 12.9756 16.7413 13.4343 16.496C13.8929 16.2507 14.2609 15.8827 14.5383 15.392C14.8263 14.9013 14.9703 14.304 14.9703 13.6C14.9703 12.896 14.8316 12.2987 14.5543 11.808C14.2769 11.3173 13.9143 10.9547 13.4663 10.72C13.0183 10.4747 12.5329 10.352 12.0103 10.352C11.4769 10.352 10.9863 10.4747 10.5383 10.72C10.1009 10.9547 9.74892 11.3173 9.48225 11.808C9.21558 12.2987 9.08225 12.896 9.08225 13.6C9.08225 14.3147 9.21025 14.9173 9.46625 15.408C9.73292 15.8987 10.0849 16.2667 10.5223 16.512C10.9596 16.7467 11.4396 16.864 11.9623 16.864ZM30.0526 9.232L27.3166 18H25.8126L23.7006 11.04L21.5886 18H20.0846L17.3326 9.232H18.8206L20.8366 16.592L23.0126 9.232H24.5006L26.6286 16.608L28.6126 9.232H30.0526ZM35.3216 18.144C34.5003 18.144 33.7536 17.9573 33.0816 17.584C32.4203 17.2107 31.8976 16.6827 31.5136 16C31.1403 15.3067 30.9536 14.5067 30.9536 13.6C30.9536 12.704 31.1456 11.9147 31.5296 11.232C31.9243 10.5387 32.4576 10.0107 33.1296 9.648C33.8016 9.27467 34.5536 9.088 35.3856 9.088C36.2176 9.088 36.9696 9.27467 37.6416 9.648C38.3136 10.0107 38.8416 10.5333 39.2256 11.216C39.6203 11.8987 39.8176 12.6933 39.8176 13.6C39.8176 14.5067 39.615 15.3067 39.2096 16C38.815 16.6827 38.2763 17.2107 37.5936 17.584C36.911 17.9573 36.1536 18.144 35.3216 18.144ZM35.3216 16.864C35.8443 16.864 36.335 16.7413 36.7936 16.496C37.2523 16.2507 37.6203 15.8827 37.8976 15.392C38.1856 14.9013 38.3296 14.304 38.3296 13.6C38.3296 12.896 38.191 12.2987 37.9136 11.808C37.6363 11.3173 37.2736 10.9547 36.8256 10.72C36.3776 10.4747 35.8923 10.352 35.3696 10.352C34.8363 10.352 34.3456 10.4747 33.8976 10.72C33.4603 10.9547 33.1083 11.3173 32.8416 11.808C32.575 12.2987 32.4416 12.896 32.4416 13.6C32.4416 14.3147 32.5696 14.9173 32.8256 15.408C33.0923 15.8987 33.4443 16.2667 33.8816 16.512C34.319 16.7467 34.799 16.864 35.3216 16.864ZM53.412 9.232L50.676 18H49.172L47.06 11.04L44.948 18H43.444L40.692 9.232H42.18L44.196 16.592L46.372 9.232H47.86L49.988 16.608L51.972 9.232H53.412ZM59.129 9.072C60.1957 9.072 61.0597 9.39733 61.721 10.048C62.3823 10.688 62.713 11.616 62.713 12.832V18H61.273V13.04C61.273 12.1653 61.0543 11.4987 60.617 11.04C60.1797 10.5707 59.5823 10.336 58.825 10.336C58.057 10.336 57.4437 10.576 56.985 11.056C56.537 11.536 56.313 12.2347 56.313 13.152V18H54.857V9.232H56.313V10.48C56.601 10.032 56.9903 9.68533 57.481 9.44C57.9823 9.19467 58.5317 9.072 59.129 9.072ZM68.7074 9.088C69.4647 9.088 70.126 9.25333 70.6914 9.584C71.2674 9.91467 71.694 10.3307 71.9714 10.832V9.232H73.4434V18.192C73.4434 18.992 73.2727 19.7013 72.9314 20.32C72.59 20.9493 72.0994 21.44 71.4594 21.792C70.83 22.144 70.094 22.32 69.2514 22.32C68.0994 22.32 67.1394 22.048 66.3714 21.504C65.6034 20.96 65.15 20.2187 65.0114 19.28H66.4514C66.6114 19.8133 66.942 20.24 67.4434 20.56C67.9447 20.8907 68.5474 21.056 69.2514 21.056C70.0514 21.056 70.702 20.8053 71.2034 20.304C71.7154 19.8027 71.9714 19.0987 71.9714 18.192V16.352C71.6834 16.864 71.2567 17.2907 70.6914 17.632C70.126 17.9733 69.4647 18.144 68.7074 18.144C67.9287 18.144 67.2194 17.952 66.5794 17.568C65.95 17.184 65.454 16.6453 65.0914 15.952C64.7287 15.2587 64.5474 14.4693 64.5474 13.584C64.5474 12.688 64.7287 11.904 65.0914 11.232C65.454 10.5493 65.95 10.0213 66.5794 9.648C67.2194 9.27467 67.9287 9.088 68.7074 9.088ZM71.9714 13.6C71.9714 12.9387 71.838 12.3627 71.5714 11.872C71.3047 11.3813 70.942 11.008 70.4834 10.752C70.0354 10.4853 69.5394 10.352 68.9954 10.352C68.4514 10.352 67.9554 10.48 67.5074 10.736C67.0594 10.992 66.702 11.3653 66.4354 11.856C66.1687 12.3467 66.0354 12.9227 66.0354 13.584C66.0354 14.256 66.1687 14.8427 66.4354 15.344C66.702 15.8347 67.0594 16.2133 67.5074 16.48C67.9554 16.736 68.4514 16.864 68.9954 16.864C69.5394 16.864 70.0354 16.736 70.4834 16.48C70.942 16.2133 71.3047 15.8347 71.5714 15.344C71.838 14.8427 71.9714 14.2613 71.9714 13.6ZM75.3599 13.584C75.3599 12.688 75.5412 11.904 75.9039 11.232C76.2665 10.5493 76.7625 10.0213 77.3919 9.648C78.0319 9.27467 78.7412 9.088 79.5199 9.088C80.2879 9.088 80.9545 9.25333 81.5199 9.584C82.0852 9.91467 82.5065 10.3307 82.7839 10.832V9.232H84.2559V18H82.7839V16.368C82.4959 16.88 82.0639 17.3067 81.4879 17.648C80.9225 17.9787 80.2612 18.144 79.5039 18.144C78.7252 18.144 78.0212 17.952 77.3919 17.568C76.7625 17.184 76.2665 16.6453 75.9039 15.952C75.5412 15.2587 75.3599 14.4693 75.3599 13.584ZM82.7839 13.6C82.7839 12.9387 82.6505 12.3627 82.3839 11.872C82.1172 11.3813 81.7545 11.008 81.2959 10.752C80.8479 10.4853 80.3519 10.352 79.8079 10.352C79.2639 10.352 78.7679 10.48 78.3199 10.736C77.8719 10.992 77.5145 11.3653 77.2479 11.856C76.9812 12.3467 76.8479 12.9227 76.8479 13.584C76.8479 14.256 76.9812 14.8427 77.2479 15.344C77.5145 15.8347 77.8719 16.2133 78.3199 16.48C78.7679 16.736 79.2639 16.864 79.8079 16.864C80.3519 16.864 80.8479 16.736 81.2959 16.48C81.7545 16.2133 82.1172 15.8347 82.3839 15.344C82.6505 14.8427 82.7839 14.2613 82.7839 13.6ZM90.9884 9.072C92.055 9.072 92.919 9.39733 93.5804 10.048C94.2417 10.688 94.5724 11.616 94.5724 12.832V18H93.1324V13.04C93.1324 12.1653 92.9137 11.4987 92.4764 11.04C92.039 10.5707 91.4417 10.336 90.6844 10.336C89.9164 10.336 89.303 10.576 88.8444 11.056C88.3964 11.536 88.1724 12.2347 88.1724 13.152V18H86.7164V9.232H88.1724V10.48C88.4604 10.032 88.8497 9.68533 89.3404 9.44C89.8417 9.19467 90.391 9.072 90.9884 9.072ZM107.808 15.52H102.944L102.048 18H100.512L104.544 6.912H106.224L110.24 18H108.704L107.808 15.52ZM107.392 14.336L105.376 8.704L103.36 14.336H107.392ZM116.894 18L113.454 14.128V18H111.998V6.16H113.454V13.12L116.83 9.232H118.862L114.734 13.6L118.878 18H116.894ZM122.008 10.432V15.6C122.008 16.0267 122.099 16.3307 122.28 16.512C122.461 16.6827 122.776 16.768 123.224 16.768H124.296V18H122.984C122.173 18 121.565 17.8133 121.16 17.44C120.755 17.0667 120.552 16.4533 120.552 15.6V10.432H119.416V9.232H120.552V7.024H122.008V9.232H124.296V10.432H122.008ZM126.812 7.808C126.535 7.808 126.3 7.712 126.108 7.52C125.916 7.328 125.82 7.09333 125.82 6.816C125.82 6.53867 125.916 6.304 126.108 6.112C126.3 5.92 126.535 5.824 126.812 5.824C127.079 5.824 127.303 5.92 127.484 6.112C127.676 6.304 127.772 6.53867 127.772 6.816C127.772 7.09333 127.676 7.328 127.484 7.52C127.303 7.712 127.079 7.808 126.812 7.808ZM127.516 9.232V18H126.06V9.232H127.516ZM133.566 10.432H131.726V18H130.27V10.432H129.134V9.232H130.27V8.608C130.27 7.62667 130.52 6.912 131.022 6.464C131.534 6.00533 132.35 5.776 133.47 5.776V6.992C132.83 6.992 132.376 7.12 132.11 7.376C131.854 7.62133 131.726 8.032 131.726 8.608V9.232H133.566V10.432Z" fill="#A9ABB0"/>
<path d="M1.52 42.4V39.08H9.04V68H5.36V42.4H1.52ZM14.3325 42.4V39.08H21.8525V68H18.1725V42.4H14.3325ZM46.545 42.24H32.505V51.36C33.1183 50.5067 34.025 49.8133 35.225 49.28C36.425 48.72 37.7183 48.44 39.105 48.44C41.3183 48.44 43.1183 48.9067 44.505 49.84C45.8917 50.7467 46.8783 51.9333 47.465 53.4C48.0783 54.84 48.385 56.3733 48.385 58C48.385 59.92 48.025 61.64 47.305 63.16C46.585 64.68 45.4783 65.88 43.985 66.76C42.5183 67.64 40.6917 68.08 38.505 68.08C35.705 68.08 33.4383 67.36 31.705 65.92C29.9717 64.48 28.9183 62.56 28.545 60.16H32.105C32.4517 61.68 33.185 62.8667 34.305 63.72C35.425 64.5733 36.8383 65 38.545 65C40.6517 65 42.2383 64.3733 43.305 63.12C44.3717 61.84 44.905 60.16 44.905 58.08C44.905 56 44.3717 54.4 43.305 53.28C42.2383 52.1333 40.665 51.56 38.585 51.56C37.1717 51.56 35.9317 51.9067 34.865 52.6C33.825 53.2667 33.065 54.1867 32.585 55.36H29.145V39.04H46.545V42.24ZM68.9422 68L57.4622 55.28V68H53.8222V40.12H57.4622V53.04L68.9822 40.12H73.5822L60.9422 54.08L73.7022 68H68.9422Z" fill="#1C1F37"/>
</svg>
