<svg width="133" height="19" viewBox="0 0 133 19" fill="none" xmlns="http://www.w3.org/2000/svg">
<path d="M6.248 1.32C8.024 1.32 9.576 1.664 10.904 2.352C12.248 3.024 13.28 4 14 5.28C14.736 6.544 15.104 8.024 15.104 9.72C15.104 11.416 14.736 12.888 14 14.136C13.28 15.384 12.248 16.344 10.904 17.016C9.576 17.672 8.024 18 6.248 18H0.8V1.32H6.248ZM6.248 15.768C8.2 15.768 9.696 15.24 10.736 14.184C11.776 13.128 12.296 11.64 12.296 9.72C12.296 7.784 11.776 6.272 10.736 5.184C9.696 4.096 8.2 3.552 6.248 3.552H3.536V15.768H6.248ZM16.9036 11.328C16.9036 10 17.1756 8.824 17.7196 7.8C18.2796 6.776 19.0316 5.984 19.9756 5.424C20.9356 4.848 21.9916 4.56 23.1436 4.56C24.1836 4.56 25.0876 4.768 25.8556 5.184C26.6396 5.584 27.2636 6.088 27.7276 6.696V4.776H30.4876V18H27.7276V16.032C27.2636 16.656 26.6316 17.176 25.8316 17.592C25.0316 18.008 24.1196 18.216 23.0956 18.216C21.9596 18.216 20.9196 17.928 19.9756 17.352C19.0316 16.76 18.2796 15.944 17.7196 14.904C17.1756 13.848 16.9036 12.656 16.9036 11.328ZM27.7276 11.376C27.7276 10.464 27.5356 9.672 27.1516 9C26.7836 8.328 26.2956 7.816 25.6876 7.464C25.0796 7.112 24.4236 6.936 23.7196 6.936C23.0156 6.936 22.3596 7.112 21.7516 7.464C21.1436 7.8 20.6476 8.304 20.2636 8.976C19.8956 9.632 19.7116 10.416 19.7116 11.328C19.7116 12.24 19.8956 13.04 20.2636 13.728C20.6476 14.416 21.1436 14.944 21.7516 15.312C22.3756 15.664 23.0316 15.84 23.7196 15.84C24.4236 15.84 25.0796 15.664 25.6876 15.312C26.2956 14.96 26.7836 14.448 27.1516 13.776C27.5356 13.088 27.7276 12.288 27.7276 11.376ZM38.8813 18.216C37.8413 18.216 36.9053 18.032 36.0733 17.664C35.2573 17.28 34.6093 16.768 34.1293 16.128C33.6493 15.472 33.3933 14.744 33.3613 13.944H36.1933C36.2413 14.504 36.5053 14.976 36.9853 15.36C37.4813 15.728 38.0973 15.912 38.8333 15.912C39.6013 15.912 40.1933 15.768 40.6093 15.48C41.0413 15.176 41.2573 14.792 41.2573 14.328C41.2573 13.832 41.0173 13.464 40.5373 13.224C40.0733 12.984 39.3293 12.72 38.3053 12.432C37.3133 12.16 36.5053 11.896 35.8813 11.64C35.2573 11.384 34.7133 10.992 34.2493 10.464C33.8013 9.936 33.5773 9.24 33.5773 8.376C33.5773 7.672 33.7853 7.032 34.2013 6.456C34.6173 5.864 35.2093 5.4 35.9773 5.064C36.7613 4.728 37.6573 4.56 38.6653 4.56C40.1693 4.56 41.3773 4.944 42.2893 5.712C43.2173 6.464 43.7133 7.496 43.7773 8.808H41.0413C40.9933 8.216 40.7533 7.744 40.3213 7.392C39.8893 7.04 39.3053 6.864 38.5693 6.864C37.8493 6.864 37.2973 7 36.9133 7.272C36.5293 7.544 36.3373 7.904 36.3373 8.352C36.3373 8.704 36.4653 9 36.7213 9.24C36.9773 9.48 37.2893 9.672 37.6573 9.816C38.0253 9.944 38.5693 10.112 39.2893 10.32C40.2493 10.576 41.0333 10.84 41.6413 11.112C42.2653 11.368 42.8013 11.752 43.2493 12.264C43.6973 12.776 43.9293 13.456 43.9453 14.304C43.9453 15.056 43.7373 15.728 43.3213 16.32C42.9053 16.912 42.3133 17.376 41.5453 17.712C40.7933 18.048 39.9053 18.216 38.8813 18.216ZM53.7416 4.56C54.7496 4.56 55.6456 4.776 56.4296 5.208C57.2296 5.64 57.8536 6.28 58.3016 7.128C58.7656 7.976 58.9976 9 58.9976 10.2V18H56.2856V10.608C56.2856 9.424 55.9896 8.52 55.3976 7.896C54.8056 7.256 53.9976 6.936 52.9736 6.936C51.9496 6.936 51.1336 7.256 50.5256 7.896C49.9336 8.52 49.6376 9.424 49.6376 10.608V18H46.9016V0.24H49.6376V6.312C50.1016 5.752 50.6856 5.32 51.3896 5.016C52.1096 4.712 52.8936 4.56 53.7416 4.56ZM65.2235 6.744C65.6875 6.104 66.3195 5.584 67.1195 5.184C67.9355 4.768 68.8395 4.56 69.8315 4.56C70.9995 4.56 72.0555 4.84 72.9995 5.4C73.9435 5.96 74.6875 6.76 75.2315 7.8C75.7755 8.824 76.0475 10 76.0475 11.328C76.0475 12.656 75.7755 13.848 75.2315 14.904C74.6875 15.944 73.9355 16.76 72.9755 17.352C72.0315 17.928 70.9835 18.216 69.8315 18.216C68.8075 18.216 67.8955 18.016 67.0955 17.616C66.3115 17.216 65.6875 16.704 65.2235 16.08V18H62.4875V0.24H65.2235V6.744ZM73.2635 11.328C73.2635 10.416 73.0715 9.632 72.6875 8.976C72.3195 8.304 71.8235 7.8 71.1995 7.464C70.5915 7.112 69.9355 6.936 69.2315 6.936C68.5435 6.936 67.8875 7.112 67.2635 7.464C66.6555 7.816 66.1595 8.328 65.7755 9C65.4075 9.672 65.2235 10.464 65.2235 11.376C65.2235 12.288 65.4075 13.088 65.7755 13.776C66.1595 14.448 66.6555 14.96 67.2635 15.312C67.8875 15.664 68.5435 15.84 69.2315 15.84C69.9355 15.84 70.5915 15.664 71.1995 15.312C71.8235 14.944 72.3195 14.416 72.6875 13.728C73.0715 13.04 73.2635 12.24 73.2635 11.328ZM84.4891 18.216C83.2411 18.216 82.1131 17.936 81.1051 17.376C80.0971 16.8 79.3051 16 78.7291 14.976C78.1531 13.936 77.8651 12.736 77.8651 11.376C77.8651 10.032 78.1611 8.84 78.7531 7.8C79.3451 6.76 80.1531 5.96 81.1771 5.4C82.2011 4.84 83.3451 4.56 84.6091 4.56C85.8731 4.56 87.0171 4.84 88.0411 5.4C89.0651 5.96 89.8731 6.76 90.4651 7.8C91.0571 8.84 91.3531 10.032 91.3531 11.376C91.3531 12.72 91.0491 13.912 90.4411 14.952C89.8331 15.992 89.0011 16.8 87.9451 17.376C86.9051 17.936 85.7531 18.216 84.4891 18.216ZM84.4891 15.84C85.1931 15.84 85.8491 15.672 86.4571 15.336C87.0811 15 87.5851 14.496 87.9691 13.824C88.3531 13.152 88.5451 12.336 88.5451 11.376C88.5451 10.416 88.3611 9.608 87.9931 8.952C87.6251 8.28 87.1371 7.776 86.5291 7.44C85.9211 7.104 85.2651 6.936 84.5611 6.936C83.8571 6.936 83.2011 7.104 82.5931 7.44C82.0011 7.776 81.5291 8.28 81.1771 8.952C80.8251 9.608 80.6491 10.416 80.6491 11.376C80.6491 12.8 81.0091 13.904 81.7291 14.688C82.4651 15.456 83.3851 15.84 84.4891 15.84ZM93.1458 11.328C93.1458 10 93.4178 8.824 93.9618 7.8C94.5218 6.776 95.2738 5.984 96.2178 5.424C97.1778 4.848 98.2338 4.56 99.3858 4.56C100.426 4.56 101.33 4.768 102.098 5.184C102.882 5.584 103.506 6.088 103.97 6.696V4.776H106.73V18H103.97V16.032C103.506 16.656 102.874 17.176 102.074 17.592C101.274 18.008 100.362 18.216 99.3378 18.216C98.2018 18.216 97.1618 17.928 96.2178 17.352C95.2738 16.76 94.5218 15.944 93.9618 14.904C93.4178 13.848 93.1458 12.656 93.1458 11.328ZM103.97 11.376C103.97 10.464 103.778 9.672 103.394 9C103.026 8.328 102.538 7.816 101.93 7.464C101.322 7.112 100.666 6.936 99.9618 6.936C99.2578 6.936 98.6018 7.112 97.9938 7.464C97.3858 7.8 96.8898 8.304 96.5058 8.976C96.1378 9.632 95.9538 10.416 95.9538 11.328C95.9538 12.24 96.1378 13.04 96.5058 13.728C96.8898 14.416 97.3858 14.944 97.9938 15.312C98.6178 15.664 99.2738 15.84 99.9618 15.84C100.666 15.84 101.322 15.664 101.93 15.312C102.538 14.96 103.026 14.448 103.394 13.776C103.778 13.088 103.97 12.288 103.97 11.376ZM113.059 6.696C113.459 6.024 113.987 5.504 114.643 5.136C115.315 4.752 116.107 4.56 117.019 4.56V7.392H116.323C115.251 7.392 114.435 7.664 113.875 8.208C113.331 8.752 113.059 9.696 113.059 11.04V18H110.323V4.776H113.059V6.696ZM118.622 11.328C118.622 10 118.894 8.824 119.438 7.8C119.998 6.776 120.75 5.984 121.694 5.424C122.654 4.848 123.718 4.56 124.886 4.56C125.75 4.56 126.598 4.752 127.43 5.136C128.278 5.504 128.95 6 129.446 6.624V0.24H132.206V18H129.446V16.008C128.998 16.648 128.374 17.176 127.574 17.592C126.79 18.008 125.886 18.216 124.862 18.216C123.71 18.216 122.654 17.928 121.694 17.352C120.75 16.76 119.998 15.944 119.438 14.904C118.894 13.848 118.622 12.656 118.622 11.328ZM129.446 11.376C129.446 10.464 129.254 9.672 128.87 9C128.502 8.328 128.014 7.816 127.406 7.464C126.798 7.112 126.142 6.936 125.438 6.936C124.734 6.936 124.078 7.112 123.47 7.464C122.862 7.8 122.366 8.304 121.982 8.976C121.614 9.632 121.43 10.416 121.43 11.328C121.43 12.24 121.614 13.04 121.982 13.728C122.366 14.416 122.862 14.944 123.47 15.312C124.094 15.664 124.75 15.84 125.438 15.84C126.142 15.84 126.798 15.664 127.406 15.312C128.014 14.96 128.502 14.448 128.87 13.776C129.254 13.088 129.446 12.288 129.446 11.376Z" fill="#1C1F37"/>
</svg>
