<svg width="107" height="84" viewBox="0 0 107 84" fill="none" xmlns="http://www.w3.org/2000/svg">
<path d="M9.02199 10.112C9.02199 11.04 8.70198 11.8133 8.06198 12.432C7.43265 13.04 6.46732 13.344 5.16598 13.344H3.02198V18H1.56598V6.848H5.16598C6.42465 6.848 7.37932 7.152 8.02998 7.76C8.69132 8.368 9.02199 9.152 9.02199 10.112ZM5.16598 12.144C5.97665 12.144 6.57398 11.968 6.95798 11.616C7.34198 11.264 7.53398 10.7627 7.53398 10.112C7.53398 8.736 6.74465 8.048 5.16598 8.048H3.02198V12.144H5.16598ZM18.8316 13.28C18.8316 13.5573 18.8156 13.8507 18.7836 14.16H11.7756C11.8289 15.024 12.1223 15.7013 12.6556 16.192C13.1996 16.672 13.8556 16.912 14.6236 16.912C15.2529 16.912 15.7756 16.768 16.1916 16.48C16.6183 16.1813 16.9169 15.7867 17.0876 15.296H18.6556C18.4209 16.1387 17.9516 16.8267 17.2476 17.36C16.5436 17.8827 15.6689 18.144 14.6236 18.144C13.7916 18.144 13.0449 17.9573 12.3836 17.584C11.7329 17.2107 11.2209 16.6827 10.8476 16C10.4743 15.3067 10.2876 14.5067 10.2876 13.6C10.2876 12.6933 10.4689 11.8987 10.8316 11.216C11.1943 10.5333 11.7009 10.0107 12.3516 9.648C13.0129 9.27467 13.7703 9.088 14.6236 9.088C15.4556 9.088 16.1916 9.26933 16.8316 9.632C17.4716 9.99467 17.9623 10.496 18.3036 11.136C18.6556 11.7653 18.8316 12.48 18.8316 13.28ZM17.3276 12.976C17.3276 12.4213 17.2049 11.9467 16.9596 11.552C16.7143 11.1467 16.3783 10.8427 15.9516 10.64C15.5356 10.4267 15.0716 10.32 14.5596 10.32C13.8236 10.32 13.1943 10.5547 12.6716 11.024C12.1596 11.4933 11.8663 12.144 11.7916 12.976H17.3276ZM22.2095 6.16V18H20.7535V6.16H22.2095ZM24.147 13.584C24.147 12.688 24.3283 11.904 24.691 11.232C25.0537 10.5493 25.5497 10.0213 26.179 9.648C26.819 9.27467 27.5283 9.088 28.307 9.088C29.075 9.088 29.7417 9.25333 30.307 9.584C30.8723 9.91467 31.2937 10.3307 31.571 10.832V9.232H33.043V18H31.571V16.368C31.283 16.88 30.851 17.3067 30.275 17.648C29.7097 17.9787 29.0483 18.144 28.291 18.144C27.5123 18.144 26.8083 17.952 26.179 17.568C25.5497 17.184 25.0537 16.6453 24.691 15.952C24.3283 15.2587 24.147 14.4693 24.147 13.584ZM31.571 13.6C31.571 12.9387 31.4377 12.3627 31.171 11.872C30.9043 11.3813 30.5417 11.008 30.083 10.752C29.635 10.4853 29.139 10.352 28.595 10.352C28.051 10.352 27.555 10.48 27.107 10.736C26.659 10.992 26.3017 11.3653 26.035 11.856C25.7683 12.3467 25.635 12.9227 25.635 13.584C25.635 14.256 25.7683 14.8427 26.035 15.344C26.3017 15.8347 26.659 16.2133 27.107 16.48C27.555 16.736 28.051 16.864 28.595 16.864C29.139 16.864 29.635 16.736 30.083 16.48C30.5417 16.2133 30.9043 15.8347 31.171 15.344C31.4377 14.8427 31.571 14.2613 31.571 13.6ZM46.0475 9.072C46.7302 9.072 47.3382 9.216 47.8715 9.504C48.4048 9.78133 48.8262 10.2027 49.1355 10.768C49.4448 11.3333 49.5995 12.0213 49.5995 12.832V18H48.1595V13.04C48.1595 12.1653 47.9408 11.4987 47.5035 11.04C47.0768 10.5707 46.4955 10.336 45.7595 10.336C45.0022 10.336 44.3995 10.5813 43.9515 11.072C43.5035 11.552 43.2795 12.2507 43.2795 13.168V18H41.8395V13.04C41.8395 12.1653 41.6208 11.4987 41.1835 11.04C40.7568 10.5707 40.1755 10.336 39.4395 10.336C38.6822 10.336 38.0795 10.5813 37.6315 11.072C37.1835 11.552 36.9595 12.2507 36.9595 13.168V18H35.5035V9.232H36.9595V10.496C37.2475 10.0373 37.6315 9.68533 38.1115 9.44C38.6022 9.19467 39.1408 9.072 39.7275 9.072C40.4635 9.072 41.1142 9.23733 41.6795 9.568C42.2448 9.89867 42.6662 10.384 42.9435 11.024C43.1888 10.4053 43.5942 9.92533 44.1595 9.584C44.7248 9.24267 45.3542 9.072 46.0475 9.072ZM51.4439 13.584C51.4439 12.688 51.6252 11.904 51.9879 11.232C52.3505 10.5493 52.8465 10.0213 53.4759 9.648C54.1159 9.27467 54.8252 9.088 55.6039 9.088C56.3719 9.088 57.0385 9.25333 57.6039 9.584C58.1692 9.91467 58.5905 10.3307 58.8679 10.832V9.232H60.3399V18H58.8679V16.368C58.5799 16.88 58.1479 17.3067 57.5719 17.648C57.0065 17.9787 56.3452 18.144 55.5879 18.144C54.8092 18.144 54.1052 17.952 53.4759 17.568C52.8465 17.184 52.3505 16.6453 51.9879 15.952C51.6252 15.2587 51.4439 14.4693 51.4439 13.584ZM58.8679 13.6C58.8679 12.9387 58.7345 12.3627 58.4679 11.872C58.2012 11.3813 57.8385 11.008 57.3799 10.752C56.9319 10.4853 56.4359 10.352 55.8919 10.352C55.3479 10.352 54.8519 10.48 54.4039 10.736C53.9559 10.992 53.5985 11.3653 53.3319 11.856C53.0652 12.3467 52.9319 12.9227 52.9319 13.584C52.9319 14.256 53.0652 14.8427 53.3319 15.344C53.5985 15.8347 53.9559 16.2133 54.4039 16.48C54.8519 16.736 55.3479 16.864 55.8919 16.864C56.4359 16.864 56.9319 16.736 57.3799 16.48C57.8385 16.2133 58.2012 15.8347 58.4679 15.344C58.7345 14.8427 58.8679 14.2613 58.8679 13.6ZM64.2564 10.656C64.5124 10.1547 64.875 9.76533 65.3444 9.488C65.8244 9.21067 66.4057 9.072 67.0884 9.072V10.576H66.7044C65.0724 10.576 64.2564 11.4613 64.2564 13.232V18H62.8004V9.232H64.2564V10.656ZM79.6267 15.52H74.7627L73.8667 18H72.3307L76.3627 6.912H78.0427L82.0587 18H80.5227L79.6267 15.52ZM79.2107 14.336L77.1947 8.704L75.1787 14.336H79.2107ZM88.712 18L85.272 14.128V18H83.816V6.16H85.272V13.12L88.648 9.232H90.68L86.552 13.6L90.696 18H88.712ZM93.8264 10.432V15.6C93.8264 16.0267 93.917 16.3307 94.0984 16.512C94.2797 16.6827 94.5944 16.768 95.0424 16.768H96.1144V18H94.8024C93.9917 18 93.3837 17.8133 92.9784 17.44C92.573 17.0667 92.3704 16.4533 92.3704 15.6V10.432H91.2344V9.232H92.3704V7.024H93.8264V9.232H96.1144V10.432H93.8264ZM98.6305 7.808C98.3532 7.808 98.1185 7.712 97.9265 7.52C97.7345 7.328 97.6385 7.09333 97.6385 6.816C97.6385 6.53867 97.7345 6.304 97.9265 6.112C98.1185 5.92 98.3532 5.824 98.6305 5.824C98.8972 5.824 99.1212 5.92 99.3025 6.112C99.4945 6.304 99.5905 6.53867 99.5905 6.816C99.5905 7.09333 99.4945 7.328 99.3025 7.52C99.1212 7.712 98.8972 7.808 98.6305 7.808ZM99.3345 9.232V18H97.8785V9.232H99.3345ZM105.384 10.432H103.544V18H102.088V10.432H100.952V9.232H102.088V8.608C102.088 7.62667 102.339 6.912 102.84 6.464C103.352 6.00533 104.168 5.776 105.288 5.776V6.992C104.648 6.992 104.195 7.12 103.928 7.376C103.672 7.62133 103.544 8.032 103.544 8.608V9.232H105.384V10.432Z" fill="#A9ABB0"/>
<path d="M1.85398 42.4V39.08H9.37398V68H5.69398V42.4H1.85398ZM14.6665 42.4V39.08H22.1865V68H18.5065V42.4H14.6665ZM46.879 42.24H32.839V51.36C33.4523 50.5067 34.359 49.8133 35.559 49.28C36.759 48.72 38.0523 48.44 39.439 48.44C41.6523 48.44 43.4523 48.9067 44.839 49.84C46.2257 50.7467 47.2123 51.9333 47.799 53.4C48.4123 54.84 48.719 56.3733 48.719 58C48.719 59.92 48.359 61.64 47.639 63.16C46.919 64.68 45.8123 65.88 44.319 66.76C42.8523 67.64 41.0257 68.08 38.839 68.08C36.039 68.08 33.7723 67.36 32.039 65.92C30.3057 64.48 29.2523 62.56 28.879 60.16H32.439C32.7857 61.68 33.519 62.8667 34.639 63.72C35.759 64.5733 37.1723 65 38.879 65C40.9857 65 42.5723 64.3733 43.639 63.12C44.7057 61.84 45.239 60.16 45.239 58.08C45.239 56 44.7057 54.4 43.639 53.28C42.5723 52.1333 40.999 51.56 38.919 51.56C37.5057 51.56 36.2657 51.9067 35.199 52.6C34.159 53.2667 33.399 54.1867 32.919 55.36H29.479V39.04H46.879V42.24ZM69.2762 68L57.7962 55.28V68H54.1562V40.12H57.7962V53.04L69.3162 40.12H73.9162L61.2762 54.08L74.0362 68H69.2762Z" fill="#1C1F37"/>
</svg>
