<svg width="112" height="84" viewBox="0 0 112 84" fill="none" xmlns="http://www.w3.org/2000/svg">
<path d="M8.76202 6.848V8.032H5.72202V18H4.26602V8.032H1.21002V6.848H8.76202ZM14.3783 18.144C13.5569 18.144 12.8103 17.9573 12.1383 17.584C11.4769 17.2107 10.9543 16.6827 10.5703 16C10.1969 15.3067 10.0103 14.5067 10.0103 13.6C10.0103 12.704 10.2023 11.9147 10.5863 11.232C10.9809 10.5387 11.5143 10.0107 12.1863 9.648C12.8583 9.27467 13.6103 9.088 14.4423 9.088C15.2743 9.088 16.0263 9.27467 16.6983 9.648C17.3703 10.0107 17.8983 10.5333 18.2823 11.216C18.6769 11.8987 18.8743 12.6933 18.8743 13.6C18.8743 14.5067 18.6716 15.3067 18.2663 16C17.8716 16.6827 17.3329 17.2107 16.6503 17.584C15.9676 17.9573 15.2103 18.144 14.3783 18.144ZM14.3783 16.864C14.9009 16.864 15.3916 16.7413 15.8503 16.496C16.3089 16.2507 16.6769 15.8827 16.9543 15.392C17.2423 14.9013 17.3863 14.304 17.3863 13.6C17.3863 12.896 17.2476 12.2987 16.9703 11.808C16.6929 11.3173 16.3303 10.9547 15.8823 10.72C15.4343 10.4747 14.9489 10.352 14.4263 10.352C13.8929 10.352 13.4023 10.4747 12.9543 10.72C12.5169 10.9547 12.1649 11.3173 11.8983 11.808C11.6316 12.2987 11.4983 12.896 11.4983 13.6C11.4983 14.3147 11.6263 14.9173 11.8823 15.408C12.1489 15.8987 12.5009 16.2667 12.9383 16.512C13.3756 16.7467 13.8556 16.864 14.3783 16.864ZM22.5646 10.432V15.6C22.5646 16.0267 22.6553 16.3307 22.8366 16.512C23.018 16.6827 23.3326 16.768 23.7806 16.768H24.8526V18H23.5406C22.73 18 22.122 17.8133 21.7166 17.44C21.3113 17.0667 21.1086 16.4533 21.1086 15.6V10.432H19.9726V9.232H21.1086V7.024H22.5646V9.232H24.8526V10.432H22.5646ZM26.0728 13.584C26.0728 12.688 26.2541 11.904 26.6168 11.232C26.9794 10.5493 27.4754 10.0213 28.1048 9.648C28.7448 9.27467 29.4541 9.088 30.2328 9.088C31.0008 9.088 31.6674 9.25333 32.2328 9.584C32.7981 9.91467 33.2194 10.3307 33.4968 10.832V9.232H34.9688V18H33.4968V16.368C33.2088 16.88 32.7768 17.3067 32.2008 17.648C31.6354 17.9787 30.9741 18.144 30.2168 18.144C29.4381 18.144 28.7341 17.952 28.1048 17.568C27.4754 17.184 26.9794 16.6453 26.6168 15.952C26.2541 15.2587 26.0728 14.4693 26.0728 13.584ZM33.4968 13.6C33.4968 12.9387 33.3634 12.3627 33.0968 11.872C32.8301 11.3813 32.4674 11.008 32.0088 10.752C31.5608 10.4853 31.0648 10.352 30.5208 10.352C29.9768 10.352 29.4808 10.48 29.0328 10.736C28.5848 10.992 28.2274 11.3653 27.9608 11.856C27.6941 12.3467 27.5608 12.9227 27.5608 13.584C27.5608 14.256 27.6941 14.8427 27.9608 15.344C28.2274 15.8347 28.5848 16.2133 29.0328 16.48C29.4808 16.736 29.9768 16.864 30.5208 16.864C31.0648 16.864 31.5608 16.736 32.0088 16.48C32.4674 16.2133 32.8301 15.8347 33.0968 15.344C33.3634 14.8427 33.4968 14.2613 33.4968 13.6ZM38.8853 6.16V18H37.4293V6.16H38.8853ZM53.0884 10.112C53.0884 11.04 52.7684 11.8133 52.1284 12.432C51.4991 13.04 50.5337 13.344 49.2324 13.344H47.0884V18H45.6324V6.848H49.2324C50.4911 6.848 51.4457 7.152 52.0964 7.76C52.7577 8.368 53.0884 9.152 53.0884 10.112ZM49.2324 12.144C50.0431 12.144 50.6404 11.968 51.0244 11.616C51.4084 11.264 51.6004 10.7627 51.6004 10.112C51.6004 8.736 50.8111 8.048 49.2324 8.048H47.0884V12.144H49.2324ZM62.898 13.28C62.898 13.5573 62.882 13.8507 62.85 14.16H55.842C55.8953 15.024 56.1887 15.7013 56.722 16.192C57.266 16.672 57.922 16.912 58.69 16.912C59.3193 16.912 59.842 16.768 60.258 16.48C60.6847 16.1813 60.9833 15.7867 61.154 15.296H62.722C62.4873 16.1387 62.018 16.8267 61.314 17.36C60.61 17.8827 59.7353 18.144 58.69 18.144C57.858 18.144 57.1113 17.9573 56.45 17.584C55.7993 17.2107 55.2873 16.6827 54.914 16C54.5407 15.3067 54.354 14.5067 54.354 13.6C54.354 12.6933 54.5353 11.8987 54.898 11.216C55.2607 10.5333 55.7673 10.0107 56.418 9.648C57.0793 9.27467 57.8367 9.088 58.69 9.088C59.522 9.088 60.258 9.26933 60.898 9.632C61.538 9.99467 62.0287 10.496 62.37 11.136C62.722 11.7653 62.898 12.48 62.898 13.28ZM61.394 12.976C61.394 12.4213 61.2713 11.9467 61.026 11.552C60.7807 11.1467 60.4447 10.8427 60.018 10.64C59.602 10.4267 59.138 10.32 58.626 10.32C57.89 10.32 57.2607 10.5547 56.738 11.024C56.226 11.4933 55.9327 12.144 55.858 12.976H61.394ZM66.2759 6.16V18H64.8199V6.16H66.2759ZM68.2134 13.584C68.2134 12.688 68.3947 11.904 68.7574 11.232C69.1201 10.5493 69.6161 10.0213 70.2454 9.648C70.8854 9.27467 71.5947 9.088 72.3734 9.088C73.1414 9.088 73.8081 9.25333 74.3734 9.584C74.9387 9.91467 75.3601 10.3307 75.6374 10.832V9.232H77.1094V18H75.6374V16.368C75.3494 16.88 74.9174 17.3067 74.3414 17.648C73.7761 17.9787 73.1147 18.144 72.3574 18.144C71.5787 18.144 70.8747 17.952 70.2454 17.568C69.6161 17.184 69.1201 16.6453 68.7574 15.952C68.3947 15.2587 68.2134 14.4693 68.2134 13.584ZM75.6374 13.6C75.6374 12.9387 75.5041 12.3627 75.2374 11.872C74.9707 11.3813 74.6081 11.008 74.1494 10.752C73.7014 10.4853 73.2054 10.352 72.6614 10.352C72.1174 10.352 71.6214 10.48 71.1734 10.736C70.7254 10.992 70.3681 11.3653 70.1014 11.856C69.8347 12.3467 69.7014 12.9227 69.7014 13.584C69.7014 14.256 69.8347 14.8427 70.1014 15.344C70.3681 15.8347 70.7254 16.2133 71.1734 16.48C71.6214 16.736 72.1174 16.864 72.6614 16.864C73.2054 16.864 73.7014 16.736 74.1494 16.48C74.6081 16.2133 74.9707 15.8347 75.2374 15.344C75.5041 14.8427 75.6374 14.2613 75.6374 13.6ZM90.1139 9.072C90.7966 9.072 91.4046 9.216 91.9379 9.504C92.4712 9.78133 92.8926 10.2027 93.2019 10.768C93.5112 11.3333 93.6659 12.0213 93.6659 12.832V18H92.2259V13.04C92.2259 12.1653 92.0072 11.4987 91.5699 11.04C91.1432 10.5707 90.5619 10.336 89.8259 10.336C89.0686 10.336 88.4659 10.5813 88.0179 11.072C87.5699 11.552 87.3459 12.2507 87.3459 13.168V18H85.9059V13.04C85.9059 12.1653 85.6872 11.4987 85.2499 11.04C84.8232 10.5707 84.2419 10.336 83.5059 10.336C82.7486 10.336 82.1459 10.5813 81.6979 11.072C81.2499 11.552 81.0259 12.2507 81.0259 13.168V18H79.5699V9.232H81.0259V10.496C81.3139 10.0373 81.6979 9.68533 82.1779 9.44C82.6686 9.19467 83.2072 9.072 83.7939 9.072C84.5299 9.072 85.1806 9.23733 85.7459 9.568C86.3112 9.89867 86.7326 10.384 87.0099 11.024C87.2552 10.4053 87.6606 9.92533 88.2259 9.584C88.7912 9.24267 89.4206 9.072 90.1139 9.072ZM95.5103 13.584C95.5103 12.688 95.6916 11.904 96.0543 11.232C96.4169 10.5493 96.9129 10.0213 97.5423 9.648C98.1823 9.27467 98.8916 9.088 99.6703 9.088C100.438 9.088 101.105 9.25333 101.67 9.584C102.236 9.91467 102.657 10.3307 102.934 10.832V9.232H104.406V18H102.934V16.368C102.646 16.88 102.214 17.3067 101.638 17.648C101.073 17.9787 100.412 18.144 99.6543 18.144C98.8756 18.144 98.1716 17.952 97.5423 17.568C96.9129 17.184 96.4169 16.6453 96.0543 15.952C95.6916 15.2587 95.5103 14.4693 95.5103 13.584ZM102.934 13.6C102.934 12.9387 102.801 12.3627 102.534 11.872C102.268 11.3813 101.905 11.008 101.446 10.752C100.998 10.4853 100.502 10.352 99.9583 10.352C99.4143 10.352 98.9183 10.48 98.4703 10.736C98.0223 10.992 97.6649 11.3653 97.3983 11.856C97.1316 12.3467 96.9983 12.9227 96.9983 13.584C96.9983 14.256 97.1316 14.8427 97.3983 15.344C97.6649 15.8347 98.0223 16.2133 98.4703 16.48C98.9183 16.736 99.4143 16.864 99.9583 16.864C100.502 16.864 100.998 16.736 101.446 16.48C101.905 16.2133 102.268 15.8347 102.534 15.344C102.801 14.8427 102.934 14.2613 102.934 13.6ZM108.323 10.656C108.579 10.1547 108.941 9.76533 109.411 9.488C109.891 9.21067 110.472 9.072 111.155 9.072V10.576H110.771C109.139 10.576 108.323 11.4613 108.323 13.232V18H106.867V9.232H108.323V10.656Z" fill="#A9ABB0"/>
<path d="M2.18602 42.4V39.08H9.70602V68H6.02602V42.4H2.18602ZM14.9985 42.4V39.08H22.5185V68H18.8385V42.4H14.9985ZM47.211 42.24H33.171V51.36C33.7843 50.5067 34.691 49.8133 35.891 49.28C37.091 48.72 38.3843 48.44 39.771 48.44C41.9843 48.44 43.7843 48.9067 45.171 49.84C46.5577 50.7467 47.5444 51.9333 48.131 53.4C48.7443 54.84 49.051 56.3733 49.051 58C49.051 59.92 48.691 61.64 47.971 63.16C47.251 64.68 46.1444 65.88 44.651 66.76C43.1843 67.64 41.3577 68.08 39.171 68.08C36.371 68.08 34.1043 67.36 32.371 65.92C30.6377 64.48 29.5843 62.56 29.211 60.16H32.771C33.1177 61.68 33.851 62.8667 34.971 63.72C36.091 64.5733 37.5043 65 39.211 65C41.3177 65 42.9043 64.3733 43.971 63.12C45.0377 61.84 45.571 60.16 45.571 58.08C45.571 56 45.0377 54.4 43.971 53.28C42.9043 52.1333 41.331 51.56 39.251 51.56C37.8377 51.56 36.5977 51.9067 35.531 52.6C34.491 53.2667 33.731 54.1867 33.251 55.36H29.811V39.04H47.211V42.24ZM69.6082 68L58.1282 55.28V68H54.4882V40.12H58.1282V53.04L69.6482 40.12H74.2482L61.6082 54.08L74.3682 68H69.6082Z" fill="#1C1F37"/>
</svg>
