<svg width="64" height="64" viewBox="0 0 64 64" fill="none" xmlns="http://www.w3.org/2000/svg">
<rect opacity="0.1" width="64" height="64" rx="8" fill="#F97316"/>
<path d="M20.334 25.333C17.5673 25.333 15.334 27.5663 15.334 30.333V43.6663C15.334 46.433 17.5673 48.6663 20.334 48.6663H22.834C24.6673 48.6663 26.1673 47.1663 26.1673 45.333V28.6663C26.1673 26.833 24.6673 25.333 22.834 25.333H20.334ZM22.0007 40.333C22.0007 41.0163 21.434 41.583 20.7507 41.583C20.0673 41.583 19.5007 41.0163 19.5007 40.333V33.6663C19.5007 32.983 20.0673 32.4163 20.7507 32.4163C21.434 32.4163 22.0007 32.983 22.0007 33.6663V40.333Z" fill="#F97316"/>
<path d="M43.666 15.333H33.666C30.8993 15.333 28.666 17.5663 28.666 20.333V43.6663C28.666 46.433 30.8993 48.6663 33.666 48.6663H34.4993C34.966 48.6663 35.3327 48.2997 35.3327 47.833V41.9997C35.3327 41.083 36.0827 40.333 36.9993 40.333H40.3327C41.2494 40.333 41.9994 41.083 41.9994 41.9997V47.833C41.9994 48.2997 42.366 48.6663 42.8327 48.6663H43.666C46.4327 48.6663 48.666 46.433 48.666 43.6663V20.333C48.666 17.5663 46.4327 15.333 43.666 15.333ZM36.5827 33.6663C36.5827 34.3497 36.016 34.9163 35.3327 34.9163C34.6493 34.9163 34.0827 34.3497 34.0827 33.6663V25.333C34.0827 24.6497 34.6493 24.083 35.3327 24.083C36.016 24.083 36.5827 24.6497 36.5827 25.333V33.6663ZM43.2494 33.6663C43.2494 34.3497 42.6827 34.9163 41.9994 34.9163C41.316 34.9163 40.7494 34.3497 40.7494 33.6663V25.333C40.7494 24.6497 41.316 24.083 41.9994 24.083C42.6827 24.083 43.2494 24.6497 43.2494 25.333V33.6663Z" fill="#F97316"/>
</svg>
