<svg width="102" height="84" viewBox="0 0 102 84" fill="none" xmlns="http://www.w3.org/2000/svg">
<path d="M4.704 6.848C5.92 6.848 6.97067 7.07733 7.856 7.536C8.752 7.984 9.43467 8.62933 9.904 9.472C10.384 10.3147 10.624 11.3067 10.624 12.448C10.624 13.5893 10.384 14.5813 9.904 15.424C9.43467 16.256 8.752 16.896 7.856 17.344C6.97067 17.7813 5.92 18 4.704 18H1.232V6.848H4.704ZM4.704 16.8C6.144 16.8 7.24267 16.4213 8 15.664C8.75733 14.896 9.136 13.824 9.136 12.448C9.136 11.0613 8.752 9.97867 7.984 9.2C7.22667 8.42133 6.13333 8.032 4.704 8.032H2.688V16.8H4.704ZM20.5445 13.28C20.5445 13.5573 20.5285 13.8507 20.4965 14.16H13.4885C13.5418 15.024 13.8352 15.7013 14.3685 16.192C14.9125 16.672 15.5685 16.912 16.3365 16.912C16.9658 16.912 17.4885 16.768 17.9045 16.48C18.3312 16.1813 18.6298 15.7867 18.8005 15.296H20.3685C20.1338 16.1387 19.6645 16.8267 18.9605 17.36C18.2565 17.8827 17.3818 18.144 16.3365 18.144C15.5045 18.144 14.7578 17.9573 14.0965 17.584C13.4458 17.2107 12.9338 16.6827 12.5605 16C12.1872 15.3067 12.0005 14.5067 12.0005 13.6C12.0005 12.6933 12.1818 11.8987 12.5445 11.216C12.9072 10.5333 13.4138 10.0107 14.0645 9.648C14.7258 9.27467 15.4832 9.088 16.3365 9.088C17.1685 9.088 17.9045 9.26933 18.5445 9.632C19.1845 9.99467 19.6752 10.496 20.0165 11.136C20.3685 11.7653 20.5445 12.48 20.5445 13.28ZM19.0405 12.976C19.0405 12.4213 18.9178 11.9467 18.6725 11.552C18.4272 11.1467 18.0912 10.8427 17.6645 10.64C17.2485 10.4267 16.7845 10.32 16.2725 10.32C15.5365 10.32 14.9072 10.5547 14.3845 11.024C13.8725 11.4933 13.5792 12.144 13.5045 12.976H19.0405ZM23.9224 10.848C24.2104 10.3467 24.637 9.93067 25.2024 9.6C25.7784 9.25867 26.445 9.088 27.2024 9.088C27.981 9.088 28.685 9.27467 29.3144 9.648C29.9544 10.0213 30.4557 10.5493 30.8184 11.232C31.181 11.904 31.3624 12.688 31.3624 13.584C31.3624 14.4693 31.181 15.2587 30.8184 15.952C30.4557 16.6453 29.9544 17.184 29.3144 17.568C28.685 17.952 27.981 18.144 27.2024 18.144C26.4557 18.144 25.7944 17.9787 25.2184 17.648C24.653 17.3067 24.221 16.8853 23.9224 16.384V22.16H22.4664V9.232H23.9224V10.848ZM29.8744 13.584C29.8744 12.9227 29.741 12.3467 29.4744 11.856C29.2077 11.3653 28.845 10.992 28.3864 10.736C27.9384 10.48 27.4424 10.352 26.8984 10.352C26.365 10.352 25.869 10.4853 25.4104 10.752C24.9624 11.008 24.5997 11.3867 24.3224 11.888C24.0557 12.3787 23.9224 12.9493 23.9224 13.6C23.9224 14.2613 24.0557 14.8427 24.3224 15.344C24.5997 15.8347 24.9624 16.2133 25.4104 16.48C25.869 16.736 26.365 16.864 26.8984 16.864C27.4424 16.864 27.9384 16.736 28.3864 16.48C28.845 16.2133 29.2077 15.8347 29.4744 15.344C29.741 14.8427 29.8744 14.256 29.8744 13.584ZM32.7349 13.584C32.7349 12.688 32.9162 11.904 33.2789 11.232C33.6415 10.5493 34.1375 10.0213 34.7669 9.648C35.4069 9.27467 36.1162 9.088 36.8949 9.088C37.6629 9.088 38.3295 9.25333 38.8949 9.584C39.4602 9.91467 39.8815 10.3307 40.1589 10.832V9.232H41.6309V18H40.1589V16.368C39.8709 16.88 39.4389 17.3067 38.8629 17.648C38.2975 17.9787 37.6362 18.144 36.8789 18.144C36.1002 18.144 35.3962 17.952 34.7669 17.568C34.1375 17.184 33.6415 16.6453 33.2789 15.952C32.9162 15.2587 32.7349 14.4693 32.7349 13.584ZM40.1589 13.6C40.1589 12.9387 40.0255 12.3627 39.7589 11.872C39.4922 11.3813 39.1295 11.008 38.6709 10.752C38.2229 10.4853 37.7269 10.352 37.1829 10.352C36.6389 10.352 36.1429 10.48 35.6949 10.736C35.2469 10.992 34.8895 11.3653 34.6229 11.856C34.3562 12.3467 34.2229 12.9227 34.2229 13.584C34.2229 14.256 34.3562 14.8427 34.6229 15.344C34.8895 15.8347 35.2469 16.2133 35.6949 16.48C36.1429 16.736 36.6389 16.864 37.1829 16.864C37.7269 16.864 38.2229 16.736 38.6709 16.48C39.1295 16.2133 39.4922 15.8347 39.7589 15.344C40.0255 14.8427 40.1589 14.2613 40.1589 13.6ZM45.5474 10.656C45.8034 10.1547 46.166 9.76533 46.6354 9.488C47.1154 9.21067 47.6967 9.072 48.3794 9.072V10.576H47.9954C46.3634 10.576 45.5474 11.4613 45.5474 13.232V18H44.0914V9.232H45.5474V10.656ZM51.8361 10.432V15.6C51.8361 16.0267 51.9268 16.3307 52.1081 16.512C52.2895 16.6827 52.6041 16.768 53.0521 16.768H54.1241V18H52.8121C52.0015 18 51.3935 17.8133 50.9881 17.44C50.5828 17.0667 50.3801 16.4533 50.3801 15.6V10.432H49.2441V9.232H50.3801V7.024H51.8361V9.232H54.1241V10.432H51.8361ZM63.8883 13.28C63.8883 13.5573 63.8723 13.8507 63.8403 14.16H56.8323C56.8856 15.024 57.1789 15.7013 57.7123 16.192C58.2563 16.672 58.9123 16.912 59.6803 16.912C60.3096 16.912 60.8323 16.768 61.2483 16.48C61.6749 16.1813 61.9736 15.7867 62.1443 15.296H63.7123C63.4776 16.1387 63.0083 16.8267 62.3043 17.36C61.6003 17.8827 60.7256 18.144 59.6803 18.144C58.8483 18.144 58.1016 17.9573 57.4403 17.584C56.7896 17.2107 56.2776 16.6827 55.9043 16C55.5309 15.3067 55.3443 14.5067 55.3443 13.6C55.3443 12.6933 55.5256 11.8987 55.8883 11.216C56.2509 10.5333 56.7576 10.0107 57.4083 9.648C58.0696 9.27467 58.8269 9.088 59.6803 9.088C60.5123 9.088 61.2483 9.26933 61.8883 9.632C62.5283 9.99467 63.0189 10.496 63.3603 11.136C63.7123 11.7653 63.8883 12.48 63.8883 13.28ZM62.3843 12.976C62.3843 12.4213 62.2616 11.9467 62.0163 11.552C61.7709 11.1467 61.4349 10.8427 61.0083 10.64C60.5923 10.4267 60.1283 10.32 59.6163 10.32C58.8803 10.32 58.2509 10.5547 57.7283 11.024C57.2163 11.4933 56.9229 12.144 56.8483 12.976H62.3843ZM76.3541 9.072C77.0368 9.072 77.6448 9.216 78.1781 9.504C78.7115 9.78133 79.1328 10.2027 79.4421 10.768C79.7515 11.3333 79.9061 12.0213 79.9061 12.832V18H78.4661V13.04C78.4661 12.1653 78.2475 11.4987 77.8101 11.04C77.3835 10.5707 76.8021 10.336 76.0661 10.336C75.3088 10.336 74.7061 10.5813 74.2581 11.072C73.8101 11.552 73.5861 12.2507 73.5861 13.168V18H72.1461V13.04C72.1461 12.1653 71.9275 11.4987 71.4901 11.04C71.0635 10.5707 70.4821 10.336 69.7461 10.336C68.9888 10.336 68.3861 10.5813 67.9381 11.072C67.4901 11.552 67.2661 12.2507 67.2661 13.168V18H65.8101V9.232H67.2661V10.496C67.5541 10.0373 67.9381 9.68533 68.4181 9.44C68.9088 9.19467 69.4475 9.072 70.0341 9.072C70.7701 9.072 71.4208 9.23733 71.9861 9.568C72.5515 9.89867 72.9728 10.384 73.2501 11.024C73.4955 10.4053 73.9008 9.92533 74.4661 9.584C75.0315 9.24267 75.6608 9.072 76.3541 9.072ZM90.2945 13.28C90.2945 13.5573 90.2785 13.8507 90.2465 14.16H83.2385C83.2918 15.024 83.5852 15.7013 84.1185 16.192C84.6625 16.672 85.3185 16.912 86.0865 16.912C86.7158 16.912 87.2385 16.768 87.6545 16.48C88.0812 16.1813 88.3798 15.7867 88.5505 15.296H90.1185C89.8838 16.1387 89.4145 16.8267 88.7105 17.36C88.0065 17.8827 87.1318 18.144 86.0865 18.144C85.2545 18.144 84.5078 17.9573 83.8465 17.584C83.1958 17.2107 82.6838 16.6827 82.3105 16C81.9372 15.3067 81.7505 14.5067 81.7505 13.6C81.7505 12.6933 81.9318 11.8987 82.2945 11.216C82.6572 10.5333 83.1638 10.0107 83.8145 9.648C84.4758 9.27467 85.2332 9.088 86.0865 9.088C86.9185 9.088 87.6545 9.26933 88.2945 9.632C88.9345 9.99467 89.4252 10.496 89.7665 11.136C90.1185 11.7653 90.2945 12.48 90.2945 13.28ZM88.7905 12.976C88.7905 12.4213 88.6678 11.9467 88.4225 11.552C88.1772 11.1467 87.8412 10.8427 87.4145 10.64C86.9985 10.4267 86.5345 10.32 86.0225 10.32C85.2865 10.32 84.6572 10.5547 84.1345 11.024C83.6225 11.4933 83.3292 12.144 83.2545 12.976H88.7905ZM96.4884 9.072C97.555 9.072 98.419 9.39733 99.0804 10.048C99.7417 10.688 100.072 11.616 100.072 12.832V18H98.6324V13.04C98.6324 12.1653 98.4137 11.4987 97.9764 11.04C97.539 10.5707 96.9417 10.336 96.1844 10.336C95.4164 10.336 94.803 10.576 94.3444 11.056C93.8964 11.536 93.6724 12.2347 93.6724 13.152V18H92.2164V9.232H93.6724V10.48C93.9604 10.032 94.3497 9.68533 94.8404 9.44C95.3417 9.19467 95.891 9.072 96.4884 9.072Z" fill="#A9ABB0"/>
<path d="M1.52 42.4V39.08H9.04V68H5.36V42.4H1.52ZM14.3325 42.4V39.08H21.8525V68H18.1725V42.4H14.3325ZM46.545 42.24H32.505V51.36C33.1183 50.5067 34.025 49.8133 35.225 49.28C36.425 48.72 37.7183 48.44 39.105 48.44C41.3183 48.44 43.1183 48.9067 44.505 49.84C45.8917 50.7467 46.8783 51.9333 47.465 53.4C48.0783 54.84 48.385 56.3733 48.385 58C48.385 59.92 48.025 61.64 47.305 63.16C46.585 64.68 45.4783 65.88 43.985 66.76C42.5183 67.64 40.6917 68.08 38.505 68.08C35.705 68.08 33.4383 67.36 31.705 65.92C29.9717 64.48 28.9183 62.56 28.545 60.16H32.105C32.4517 61.68 33.185 62.8667 34.305 63.72C35.425 64.5733 36.8383 65 38.545 65C40.6517 65 42.2383 64.3733 43.305 63.12C44.3717 61.84 44.905 60.16 44.905 58.08C44.905 56 44.3717 54.4 43.305 53.28C42.2383 52.1333 40.665 51.56 38.585 51.56C37.1717 51.56 35.9317 51.9067 34.865 52.6C33.825 53.2667 33.065 54.1867 32.585 55.36H29.145V39.04H46.545V42.24ZM68.9422 68L57.4622 55.28V68H53.8222V40.12H57.4622V53.04L68.9822 40.12H73.5822L60.9422 54.08L73.7022 68H68.9422Z" fill="#1C1F37"/>
</svg>
