<svg width="64" height="64" viewBox="0 0 64 64" fill="none" xmlns="http://www.w3.org/2000/svg">
<rect opacity="0.1" width="64" height="64" rx="8" fill="#FD1F9B"/>
<path d="M41.2158 24.9497C41.0991 24.933 40.9824 24.933 40.8658 24.9497C38.2824 24.8663 36.2324 22.7497 36.2324 20.1497C36.2324 17.4997 38.3824 15.333 41.0491 15.333C43.6991 15.333 45.8658 17.483 45.8658 20.1497C45.8491 22.7497 43.7991 24.8663 41.2158 24.9497Z" fill="#FD1F9B"/>
<path d="M46.6494 36.4997C44.7827 37.7497 42.166 38.2164 39.7493 37.8997C40.3827 36.533 40.716 35.0164 40.7327 33.4164C40.7327 31.7497 40.366 30.1664 39.666 28.783C42.1327 28.4497 44.7494 28.9164 46.6327 30.1664C49.266 31.8997 49.266 34.7497 46.6494 36.4997Z" fill="#FD1F9B"/>
<path d="M22.7329 24.9497C22.8496 24.933 22.9663 24.933 23.0829 24.9497C25.6663 24.8663 27.7163 22.7497 27.7163 20.1497C27.7163 17.483 25.5663 15.333 22.8996 15.333C20.2496 15.333 18.0996 17.483 18.0996 20.1497C18.0996 22.7497 20.1496 24.8663 22.7329 24.9497Z" fill="#FD1F9B"/>
<path d="M22.9159 33.4167C22.9159 35.0333 23.2659 36.5667 23.8992 37.95C21.5492 38.2 19.0992 37.7 17.2992 36.5167C14.6659 34.7667 14.6659 31.9167 17.2992 30.1667C19.0826 28.9667 21.5992 28.4833 23.9659 28.75C23.2826 30.15 22.9159 31.7333 22.9159 33.4167Z" fill="#FD1F9B"/>
<path d="M32.2 38.45C32.0667 38.4333 31.9167 38.4333 31.7667 38.45C28.7 38.35 26.25 35.8333 26.25 32.7333C26.2667 29.5667 28.8167 27 32 27C35.1667 27 37.7333 29.5667 37.7333 32.7333C37.7167 35.8333 35.2833 38.35 32.2 38.45Z" fill="#FD1F9B"/>
<path d="M26.784 41.9004C24.2673 43.5837 24.2673 46.3504 26.784 48.0171C29.6507 49.9337 34.3507 49.9337 37.2173 48.0171C39.734 46.3337 39.734 43.5671 37.2173 41.9004C34.3673 39.9837 29.6673 39.9837 26.784 41.9004Z" fill="#FD1F9B"/>
</svg>
