<svg width="241" height="40" viewBox="0 0 241 40" fill="none" xmlns="http://www.w3.org/2000/svg">
<rect x="15" width="40" height="40" rx="8" fill="#017EFA"/>
<path d="M35 10C29.486 10 25 14.486 25 20C25 25.514 29.486 30 35 30C40.514 30 45 25.514 45 20C45 14.486 40.514 10 35 10ZM35 28C30.589 28 27 24.411 27 20C27 15.589 30.589 12 35 12C39.411 12 43 15.589 43 20C43 24.411 39.411 28 35 28Z" fill="white"/>
<path d="M36 14L30 21H34V26L40 19H36V14Z" fill="white"/>
<path d="M75.4805 23.2656V29.5H70.8516V12.3672H76.4648C81.1211 12.3672 83.4492 14.0547 83.4492 17.4297C83.4492 19.4141 82.4805 20.9492 80.543 22.0352L85.5352 29.5H80.2852L76.6523 23.2656H75.4805ZM75.4805 19.7852H76.3477C77.9648 19.7852 78.7734 19.0703 78.7734 17.6406C78.7734 16.4609 77.9805 15.8711 76.3945 15.8711H75.4805V19.7852ZM93.2344 29.7344C91.0234 29.7344 89.3047 29.1484 88.0781 27.9766C86.8594 26.7969 86.25 25.1211 86.25 22.9492C86.25 20.707 86.8164 18.9883 87.9492 17.793C89.082 16.5898 90.6992 15.9883 92.8008 15.9883C94.8008 15.9883 96.3438 16.5117 97.4297 17.5586C98.5234 18.5977 99.0703 20.0977 99.0703 22.0586V24.0977H90.8789C90.9102 24.8398 91.1797 25.4219 91.6875 25.8438C92.2031 26.2656 92.9023 26.4766 93.7852 26.4766C94.5898 26.4766 95.3281 26.4023 96 26.2539C96.6797 26.0977 97.4141 25.8359 98.2031 25.4688V28.7617C97.4844 29.1289 96.7422 29.3828 95.9766 29.5234C95.2109 29.6641 94.2969 29.7344 93.2344 29.7344ZM92.9648 19.1055C92.4258 19.1055 91.9727 19.2773 91.6055 19.6211C91.2461 19.957 91.0352 20.4883 90.9727 21.2148H94.9102C94.8945 20.5742 94.7109 20.0625 94.3594 19.6797C94.0156 19.2969 93.5508 19.1055 92.9648 19.1055ZM107.707 29.7344C105.535 29.7344 103.887 29.1484 102.762 27.9766C101.645 26.8047 101.086 25.1211 101.086 22.9258C101.086 20.7227 101.691 19.0156 102.902 17.8047C104.113 16.5938 105.836 15.9883 108.07 15.9883C109.609 15.9883 111.059 16.3242 112.418 16.9961L111.07 20.3828C110.516 20.1406 110.004 19.9492 109.535 19.8086C109.066 19.6602 108.578 19.5859 108.07 19.5859C107.328 19.5859 106.754 19.875 106.348 20.4531C105.941 21.0312 105.738 21.8477 105.738 22.9023C105.738 25.0273 106.523 26.0898 108.094 26.0898C109.438 26.0898 110.727 25.6992 111.961 24.918V28.5625C110.781 29.3438 109.363 29.7344 107.707 29.7344ZM122.613 15.9883C123.012 15.9883 123.391 16.0195 123.75 16.082L124.008 16.1289L123.598 20.4531C123.223 20.3594 122.703 20.3125 122.039 20.3125C121.039 20.3125 120.312 20.543 119.859 21.0039C119.406 21.457 119.18 22.1133 119.18 22.9727V29.5H114.598V16.2227H118.008L118.723 18.3438H118.945C119.328 17.6406 119.859 17.0742 120.539 16.6445C121.227 16.207 121.918 15.9883 122.613 15.9883ZM135.328 29.5L134.754 27.8477H134.484C134.102 28.457 133.566 28.9258 132.879 29.2539C132.199 29.5742 131.398 29.7344 130.477 29.7344C129.016 29.7344 127.879 29.3125 127.066 28.4688C126.254 27.6172 125.848 26.418 125.848 24.8711V16.2227H130.43V23.4766C130.43 24.3438 130.551 25 130.793 25.4453C131.043 25.8906 131.449 26.1133 132.012 26.1133C132.801 26.1133 133.363 25.8047 133.699 25.1875C134.035 24.5625 134.203 23.5117 134.203 22.0352V16.2227H138.785V29.5H135.328ZM146.555 29.5H141.973V16.2227H146.555V29.5ZM141.855 12.918C141.855 12.2305 142.047 11.7188 142.43 11.3828C142.812 11.0469 143.43 10.8789 144.281 10.8789C145.133 10.8789 145.754 11.0508 146.145 11.3945C146.535 11.7383 146.73 12.2461 146.73 12.918C146.73 14.2617 145.914 14.9336 144.281 14.9336C142.664 14.9336 141.855 14.2617 141.855 12.918ZM156.258 26.1133C156.875 26.1133 157.613 25.9609 158.473 25.6562V28.9961C157.855 29.2617 157.266 29.4492 156.703 29.5586C156.148 29.6758 155.496 29.7344 154.746 29.7344C153.207 29.7344 152.098 29.3594 151.418 28.6094C150.738 27.8516 150.398 26.6914 150.398 25.1289V19.6562H148.793V17.793L150.832 16.3516L152.016 13.5625H155.016V16.2227H158.273V19.6562H155.016V24.8242C155.016 25.6836 155.43 26.1133 156.258 26.1133ZM177.094 29.5V22.2812C177.094 21.3828 176.969 20.7109 176.719 20.2656C176.477 19.8125 176.09 19.5859 175.559 19.5859C174.855 19.5859 174.34 19.8867 174.012 20.4883C173.684 21.0898 173.52 22.0312 173.52 23.3125V29.5H168.926V22.2812C168.926 21.3828 168.809 20.7109 168.574 20.2656C168.34 19.8125 167.961 19.5859 167.438 19.5859C166.719 19.5859 166.195 19.9062 165.867 20.5469C165.539 21.1875 165.375 22.2344 165.375 23.6875V29.5H160.793V16.2227H164.25L164.824 17.8633H165.094C165.445 17.2539 165.953 16.7891 166.617 16.4688C167.289 16.1484 168.051 15.9883 168.902 15.9883C170.816 15.9883 172.16 16.5703 172.934 17.7344H173.297C173.672 17.1875 174.191 16.7617 174.855 16.457C175.527 16.1445 176.266 15.9883 177.07 15.9883C178.641 15.9883 179.801 16.3906 180.551 17.1953C181.301 18 181.676 19.2227 181.676 20.8633V29.5H177.094ZM191.203 29.7344C188.992 29.7344 187.273 29.1484 186.047 27.9766C184.828 26.7969 184.219 25.1211 184.219 22.9492C184.219 20.707 184.785 18.9883 185.918 17.793C187.051 16.5898 188.668 15.9883 190.77 15.9883C192.77 15.9883 194.312 16.5117 195.398 17.5586C196.492 18.5977 197.039 20.0977 197.039 22.0586V24.0977H188.848C188.879 24.8398 189.148 25.4219 189.656 25.8438C190.172 26.2656 190.871 26.4766 191.754 26.4766C192.559 26.4766 193.297 26.4023 193.969 26.2539C194.648 26.0977 195.383 25.8359 196.172 25.4688V28.7617C195.453 29.1289 194.711 29.3828 193.945 29.5234C193.18 29.6641 192.266 29.7344 191.203 29.7344ZM190.934 19.1055C190.395 19.1055 189.941 19.2773 189.574 19.6211C189.215 19.957 189.004 20.4883 188.941 21.2148H192.879C192.863 20.5742 192.68 20.0625 192.328 19.6797C191.984 19.2969 191.52 19.1055 190.934 19.1055ZM208.008 29.5V22.2578C208.008 21.375 207.879 20.7109 207.621 20.2656C207.371 19.8125 206.965 19.5859 206.402 19.5859C205.629 19.5859 205.07 19.8945 204.727 20.5117C204.383 21.1289 204.211 22.1875 204.211 23.6875V29.5H199.629V16.2227H203.086L203.66 17.8633H203.93C204.32 17.2383 204.859 16.7695 205.547 16.457C206.242 16.1445 207.039 15.9883 207.938 15.9883C209.406 15.9883 210.547 16.4141 211.359 17.2656C212.18 18.1172 212.59 19.3164 212.59 20.8633V29.5H208.008ZM222.211 26.1133C222.828 26.1133 223.566 25.9609 224.426 25.6562V28.9961C223.809 29.2617 223.219 29.4492 222.656 29.5586C222.102 29.6758 221.449 29.7344 220.699 29.7344C219.16 29.7344 218.051 29.3594 217.371 28.6094C216.691 27.8516 216.352 26.6914 216.352 25.1289V19.6562H214.746V17.793L216.785 16.3516L217.969 13.5625H220.969V16.2227H224.227V19.6562H220.969V24.8242C220.969 25.6836 221.383 26.1133 222.211 26.1133Z" fill="white"/>
</svg>
