<svg width="310" height="36" viewBox="0 0 310 36" fill="none" xmlns="http://www.w3.org/2000/svg">
<path d="M21.9113 12.7125C21.8238 12.7 21.7363 12.7 21.6488 12.7125C19.7113 12.65 18.1738 11.0625 18.1738 9.1125C18.1738 7.125 19.7863 5.5 21.7863 5.5C23.7738 5.5 25.3988 7.1125 25.3988 9.1125C25.3863 11.0625 23.8488 12.65 21.9113 12.7125Z" fill="#017EFA"/>
<path d="M25.9875 21.3751C24.5875 22.3126 22.625 22.6626 20.8125 22.4251C21.2875 21.4001 21.5375 20.2626 21.55 19.0626C21.55 17.8126 21.275 16.6251 20.75 15.5876C22.6 15.3376 24.5625 15.6876 25.975 16.6251C27.95 17.9251 27.95 20.0626 25.9875 21.3751Z" fill="#017EFA"/>
<path d="M8.04922 12.7125C8.13672 12.7 8.22422 12.7 8.31172 12.7125C10.2492 12.65 11.7867 11.0625 11.7867 9.1125C11.7867 7.1125 10.1742 5.5 8.17422 5.5C6.18672 5.5 4.57422 7.1125 4.57422 9.1125C4.57422 11.0625 6.11172 12.65 8.04922 12.7125Z" fill="#017EFA"/>
<path d="M8.18789 19.0624C8.18789 20.2749 8.45039 21.4249 8.92539 22.4624C7.16289 22.6499 5.32539 22.2749 3.97539 21.3874C2.00039 20.0749 2.00039 17.9374 3.97539 16.6249C5.31289 15.7249 7.20039 15.3624 8.97539 15.5624C8.46289 16.6124 8.18789 17.7999 8.18789 19.0624Z" fill="#017EFA"/>
<path d="M15.15 22.8375C15.05 22.825 14.9375 22.825 14.825 22.8375C12.525 22.7625 10.6875 20.875 10.6875 18.55C10.7 16.175 12.6125 14.25 15 14.25C17.375 14.25 19.3 16.175 19.3 18.55C19.2875 20.875 17.4625 22.7625 15.15 22.8375Z" fill="#017EFA"/>
<path d="M11.0875 25.4249C9.2 26.6874 9.2 28.7624 11.0875 30.0124C13.2375 31.4499 16.7625 31.4499 18.9125 30.0124C20.8 28.7499 20.8 26.6749 18.9125 25.4249C16.775 23.9874 13.25 23.9874 11.0875 25.4249Z" fill="#017EFA"/>
<path d="M47.248 9.32C49.024 9.32 50.576 9.664 51.904 10.352C53.248 11.024 54.28 12 55 13.28C55.736 14.544 56.104 16.024 56.104 17.72C56.104 19.416 55.736 20.888 55 22.136C54.28 23.384 53.248 24.344 51.904 25.016C50.576 25.672 49.024 26 47.248 26H41.8V9.32H47.248ZM47.248 23.768C49.2 23.768 50.696 23.24 51.736 22.184C52.776 21.128 53.296 19.64 53.296 17.72C53.296 15.784 52.776 14.272 51.736 13.184C50.696 12.096 49.2 11.552 47.248 11.552H44.536V23.768H47.248ZM57.9036 19.328C57.9036 18 58.1756 16.824 58.7196 15.8C59.2796 14.776 60.0316 13.984 60.9756 13.424C61.9356 12.848 62.9916 12.56 64.1436 12.56C65.1836 12.56 66.0876 12.768 66.8556 13.184C67.6396 13.584 68.2636 14.088 68.7276 14.696V12.776H71.4876V26H68.7276V24.032C68.2636 24.656 67.6316 25.176 66.8316 25.592C66.0316 26.008 65.1196 26.216 64.0956 26.216C62.9596 26.216 61.9196 25.928 60.9756 25.352C60.0316 24.76 59.2796 23.944 58.7196 22.904C58.1756 21.848 57.9036 20.656 57.9036 19.328ZM68.7276 19.376C68.7276 18.464 68.5356 17.672 68.1516 17C67.7836 16.328 67.2956 15.816 66.6876 15.464C66.0796 15.112 65.4236 14.936 64.7196 14.936C64.0156 14.936 63.3596 15.112 62.7516 15.464C62.1436 15.8 61.6476 16.304 61.2636 16.976C60.8956 17.632 60.7116 18.416 60.7116 19.328C60.7116 20.24 60.8956 21.04 61.2636 21.728C61.6476 22.416 62.1436 22.944 62.7516 23.312C63.3756 23.664 64.0316 23.84 64.7196 23.84C65.4236 23.84 66.0796 23.664 66.6876 23.312C67.2956 22.96 67.7836 22.448 68.1516 21.776C68.5356 21.088 68.7276 20.288 68.7276 19.376ZM80.6253 15.008H78.1773V26H75.4173V15.008H73.8573V12.776H75.4173V11.84C75.4173 10.32 75.8173 9.216 76.6173 8.528C77.4333 7.824 78.7053 7.472 80.4333 7.472V9.752C79.6013 9.752 79.0173 9.912 78.6813 10.232C78.3453 10.536 78.1773 11.072 78.1773 11.84V12.776H80.6253V15.008ZM86.242 15.008V22.328C86.242 22.824 86.354 23.184 86.578 23.408C86.818 23.616 87.218 23.72 87.778 23.72H89.458V26H87.298C86.066 26 85.122 25.712 84.466 25.136C83.81 24.56 83.482 23.624 83.482 22.328V15.008H81.922V12.776H83.482V9.488H86.242V12.776H89.458V15.008H86.242ZM91.0677 19.328C91.0677 18 91.3397 16.824 91.8837 15.8C92.4437 14.776 93.1957 13.984 94.1397 13.424C95.0997 12.848 96.1557 12.56 97.3077 12.56C98.3477 12.56 99.2517 12.768 100.02 13.184C100.804 13.584 101.428 14.088 101.892 14.696V12.776H104.652V26H101.892V24.032C101.428 24.656 100.796 25.176 99.9957 25.592C99.1957 26.008 98.2837 26.216 97.2597 26.216C96.1237 26.216 95.0837 25.928 94.1397 25.352C93.1957 24.76 92.4437 23.944 91.8837 22.904C91.3397 21.848 91.0677 20.656 91.0677 19.328ZM101.892 19.376C101.892 18.464 101.7 17.672 101.316 17C100.948 16.328 100.46 15.816 99.8517 15.464C99.2437 15.112 98.5877 14.936 97.8837 14.936C97.1797 14.936 96.5237 15.112 95.9157 15.464C95.3077 15.8 94.8117 16.304 94.4277 16.976C94.0597 17.632 93.8757 18.416 93.8757 19.328C93.8757 20.24 94.0597 21.04 94.4277 21.728C94.8117 22.416 95.3077 22.944 95.9157 23.312C96.5397 23.664 97.1957 23.84 97.8837 23.84C98.5877 23.84 99.2437 23.664 99.8517 23.312C100.46 22.96 100.948 22.448 101.316 21.776C101.7 21.088 101.892 20.288 101.892 19.376ZM110.981 14.696C111.381 14.024 111.909 13.504 112.565 13.136C113.237 12.752 114.029 12.56 114.941 12.56V15.392H114.245C113.173 15.392 112.357 15.664 111.797 16.208C111.253 16.752 110.981 17.696 110.981 19.04V26H108.245V12.776H110.981V14.696ZM135.355 14.288C135.355 15.136 135.155 15.936 134.755 16.688C134.355 17.44 133.715 18.056 132.835 18.536C131.955 19 130.827 19.232 129.451 19.232H126.427V26H123.691V9.32H129.451C130.731 9.32 131.811 9.544 132.691 9.992C133.587 10.424 134.251 11.016 134.683 11.768C135.131 12.52 135.355 13.36 135.355 14.288ZM129.451 17C130.491 17 131.267 16.768 131.779 16.304C132.291 15.824 132.547 15.152 132.547 14.288C132.547 12.464 131.515 11.552 129.451 11.552H126.427V17H129.451ZM150.084 19.064C150.084 19.56 150.052 20.008 149.988 20.408H139.884C139.964 21.464 140.356 22.312 141.06 22.952C141.764 23.592 142.628 23.912 143.652 23.912C145.124 23.912 146.164 23.296 146.772 22.064H149.724C149.324 23.28 148.596 24.28 147.54 25.064C146.5 25.832 145.204 26.216 143.652 26.216C142.388 26.216 141.252 25.936 140.244 25.376C139.252 24.8 138.468 24 137.892 22.976C137.332 21.936 137.052 20.736 137.052 19.376C137.052 18.016 137.324 16.824 137.868 15.8C138.428 14.76 139.204 13.96 140.196 13.4C141.204 12.84 142.356 12.56 143.652 12.56C144.9 12.56 146.012 12.832 146.988 13.376C147.964 13.92 148.724 14.688 149.268 15.68C149.812 16.656 150.084 17.784 150.084 19.064ZM147.228 18.2C147.212 17.192 146.852 16.384 146.148 15.776C145.444 15.168 144.572 14.864 143.532 14.864C142.588 14.864 141.78 15.168 141.108 15.776C140.436 16.368 140.036 17.176 139.908 18.2H147.228ZM155.513 8.24V26H152.777V8.24H155.513ZM158.193 19.328C158.193 18 158.465 16.824 159.009 15.8C159.569 14.776 160.321 13.984 161.265 13.424C162.225 12.848 163.281 12.56 164.433 12.56C165.473 12.56 166.377 12.768 167.145 13.184C167.929 13.584 168.553 14.088 169.017 14.696V12.776H171.777V26H169.017V24.032C168.553 24.656 167.921 25.176 167.121 25.592C166.321 26.008 165.409 26.216 164.385 26.216C163.249 26.216 162.209 25.928 161.265 25.352C160.321 24.76 159.569 23.944 159.009 22.904C158.465 21.848 158.193 20.656 158.193 19.328ZM169.017 19.376C169.017 18.464 168.825 17.672 168.441 17C168.073 16.328 167.585 15.816 166.977 15.464C166.369 15.112 165.713 14.936 165.009 14.936C164.305 14.936 163.649 15.112 163.041 15.464C162.433 15.8 161.937 16.304 161.553 16.976C161.185 17.632 161.001 18.416 161.001 19.328C161.001 20.24 161.185 21.04 161.553 21.728C161.937 22.416 162.433 22.944 163.041 23.312C163.665 23.664 164.321 23.84 165.009 23.84C165.713 23.84 166.369 23.664 166.977 23.312C167.585 22.96 168.073 22.448 168.441 21.776C168.825 21.088 169.017 20.288 169.017 19.376ZM191.378 12.56C192.418 12.56 193.346 12.776 194.162 13.208C194.994 13.64 195.642 14.28 196.106 15.128C196.586 15.976 196.826 17 196.826 18.2V26H194.114V18.608C194.114 17.424 193.818 16.52 193.226 15.896C192.634 15.256 191.826 14.936 190.802 14.936C189.778 14.936 188.962 15.256 188.354 15.896C187.762 16.52 187.466 17.424 187.466 18.608V26H184.754V18.608C184.754 17.424 184.458 16.52 183.866 15.896C183.274 15.256 182.466 14.936 181.442 14.936C180.418 14.936 179.602 15.256 178.994 15.896C178.402 16.52 178.106 17.424 178.106 18.608V26H175.37V12.776H178.106V14.288C178.554 13.744 179.122 13.32 179.81 13.016C180.498 12.712 181.234 12.56 182.018 12.56C183.074 12.56 184.018 12.784 184.85 13.232C185.682 13.68 186.322 14.328 186.77 15.176C187.17 14.376 187.794 13.744 188.642 13.28C189.49 12.8 190.402 12.56 191.378 12.56ZM199.396 19.328C199.396 18 199.668 16.824 200.212 15.8C200.772 14.776 201.524 13.984 202.468 13.424C203.428 12.848 204.484 12.56 205.636 12.56C206.676 12.56 207.58 12.768 208.348 13.184C209.132 13.584 209.756 14.088 210.22 14.696V12.776H212.98V26H210.22V24.032C209.756 24.656 209.124 25.176 208.324 25.592C207.524 26.008 206.612 26.216 205.588 26.216C204.452 26.216 203.412 25.928 202.468 25.352C201.524 24.76 200.772 23.944 200.212 22.904C199.668 21.848 199.396 20.656 199.396 19.328ZM210.22 19.376C210.22 18.464 210.028 17.672 209.644 17C209.276 16.328 208.788 15.816 208.18 15.464C207.572 15.112 206.916 14.936 206.212 14.936C205.508 14.936 204.852 15.112 204.244 15.464C203.636 15.8 203.14 16.304 202.756 16.976C202.388 17.632 202.204 18.416 202.204 19.328C202.204 20.24 202.388 21.04 202.756 21.728C203.14 22.416 203.636 22.944 204.244 23.312C204.868 23.664 205.524 23.84 206.212 23.84C206.916 23.84 207.572 23.664 208.18 23.312C208.788 22.96 209.276 22.448 209.644 21.776C210.028 21.088 210.22 20.288 210.22 19.376ZM219.309 14.696C219.709 14.024 220.237 13.504 220.893 13.136C221.565 12.752 222.357 12.56 223.269 12.56V15.392H222.573C221.501 15.392 220.685 15.664 220.125 16.208C219.581 16.752 219.309 17.696 219.309 19.04V26H216.573V12.776H219.309V14.696ZM242.795 9.32V11.552H238.355V26H235.619V11.552H231.155V9.32H242.795ZM257.686 19.064C257.686 19.56 257.654 20.008 257.59 20.408H247.486C247.566 21.464 247.958 22.312 248.662 22.952C249.366 23.592 250.23 23.912 251.254 23.912C252.726 23.912 253.766 23.296 254.374 22.064H257.326C256.926 23.28 256.198 24.28 255.142 25.064C254.102 25.832 252.806 26.216 251.254 26.216C249.99 26.216 248.854 25.936 247.846 25.376C246.854 24.8 246.07 24 245.494 22.976C244.934 21.936 244.654 20.736 244.654 19.376C244.654 18.016 244.926 16.824 245.47 15.8C246.03 14.76 246.806 13.96 247.798 13.4C248.806 12.84 249.958 12.56 251.254 12.56C252.502 12.56 253.614 12.832 254.59 13.376C255.566 13.92 256.326 14.688 256.87 15.68C257.414 16.656 257.686 17.784 257.686 19.064ZM254.83 18.2C254.814 17.192 254.454 16.384 253.75 15.776C253.046 15.168 252.174 14.864 251.134 14.864C250.19 14.864 249.382 15.168 248.71 15.776C248.038 16.368 247.638 17.176 247.51 18.2H254.83ZM263.114 14.696C263.514 14.024 264.042 13.504 264.698 13.136C265.37 12.752 266.162 12.56 267.074 12.56V15.392H266.378C265.306 15.392 264.49 15.664 263.93 16.208C263.386 16.752 263.114 17.696 263.114 19.04V26H260.378V12.776H263.114V14.696ZM274.821 19.4L280.917 26H277.221L272.325 20.312V26H269.589V8.24H272.325V18.56L277.125 12.776H280.917L274.821 19.4ZM284.27 11.024C283.774 11.024 283.358 10.856 283.022 10.52C282.686 10.184 282.518 9.768 282.518 9.272C282.518 8.776 282.686 8.36 283.022 8.024C283.358 7.688 283.774 7.52 284.27 7.52C284.75 7.52 285.158 7.688 285.494 8.024C285.83 8.36 285.998 8.776 285.998 9.272C285.998 9.768 285.83 10.184 285.494 10.52C285.158 10.856 284.75 11.024 284.27 11.024ZM285.614 12.776V26H282.878V12.776H285.614ZM295.878 12.56C296.918 12.56 297.846 12.776 298.662 13.208C299.494 13.64 300.142 14.28 300.606 15.128C301.07 15.976 301.302 17 301.302 18.2V26H298.59V18.608C298.59 17.424 298.294 16.52 297.702 15.896C297.11 15.256 296.302 14.936 295.278 14.936C294.254 14.936 293.438 15.256 292.83 15.896C292.238 16.52 291.942 17.424 291.942 18.608V26H289.206V12.776H291.942V14.288C292.39 13.744 292.958 13.32 293.646 13.016C294.35 12.712 295.094 12.56 295.878 12.56ZM306.184 11.024C305.688 11.024 305.272 10.856 304.936 10.52C304.6 10.184 304.432 9.768 304.432 9.272C304.432 8.776 304.6 8.36 304.936 8.024C305.272 7.688 305.688 7.52 306.184 7.52C306.664 7.52 307.072 7.688 307.408 8.024C307.744 8.36 307.912 8.776 307.912 9.272C307.912 9.768 307.744 10.184 307.408 10.52C307.072 10.856 306.664 11.024 306.184 11.024ZM307.528 12.776V26H304.792V12.776H307.528Z" fill="#1C1F37"/>
</svg>
