<svg width="1125" height="74" viewBox="0 0 1125 74" fill="none" xmlns="http://www.w3.org/2000/svg">
<g filter="url(#filter0_dd_1713:24885)">
<rect x="5" y="1" width="1115" height="64" rx="8" fill="white"/>
<path d="M40.9113 27.7125C40.8238 27.7 40.7363 27.7 40.6488 27.7125C38.7113 27.65 37.1738 26.0625 37.1738 24.1125C37.1738 22.125 38.7863 20.5 40.7863 20.5C42.7738 20.5 44.3988 22.1125 44.3988 24.1125C44.3863 26.0625 42.8488 27.65 40.9113 27.7125Z" fill="#017EFA"/>
<path d="M44.9875 36.3751C43.5875 37.3126 41.625 37.6626 39.8125 37.4251C40.2875 36.4001 40.5375 35.2626 40.55 34.0626C40.55 32.8126 40.275 31.6251 39.75 30.5876C41.6 30.3376 43.5625 30.6876 44.975 31.6251C46.95 32.9251 46.95 35.0626 44.9875 36.3751Z" fill="#017EFA"/>
<path d="M27.0492 27.7125C27.1367 27.7 27.2242 27.7 27.3117 27.7125C29.2492 27.65 30.7867 26.0625 30.7867 24.1125C30.7867 22.1125 29.1742 20.5 27.1742 20.5C25.1867 20.5 23.5742 22.1125 23.5742 24.1125C23.5742 26.0625 25.1117 27.65 27.0492 27.7125Z" fill="#017EFA"/>
<path d="M27.1879 34.0624C27.1879 35.2749 27.4504 36.4249 27.9254 37.4624C26.1629 37.6499 24.3254 37.2749 22.9754 36.3874C21.0004 35.0749 21.0004 32.9374 22.9754 31.6249C24.3129 30.7249 26.2004 30.3624 27.9754 30.5624C27.4629 31.6124 27.1879 32.7999 27.1879 34.0624Z" fill="#017EFA"/>
<path d="M34.15 37.8375C34.05 37.825 33.9375 37.825 33.825 37.8375C31.525 37.7625 29.6875 35.875 29.6875 33.55C29.7 31.175 31.6125 29.25 34 29.25C36.375 29.25 38.3 31.175 38.3 33.55C38.2875 35.875 36.4625 37.7625 34.15 37.8375Z" fill="#017EFA"/>
<path d="M30.0875 40.4249C28.2 41.6874 28.2 43.7624 30.0875 45.0124C32.2375 46.4499 35.7625 46.4499 37.9125 45.0124C39.8 43.7499 39.8 41.6749 37.9125 40.4249C35.775 38.9874 32.25 38.9874 30.0875 40.4249Z" fill="#017EFA"/>
<path d="M66.248 24.32C68.024 24.32 69.576 24.664 70.904 25.352C72.248 26.024 73.28 27 74 28.28C74.736 29.544 75.104 31.024 75.104 32.72C75.104 34.416 74.736 35.888 74 37.136C73.28 38.384 72.248 39.344 70.904 40.016C69.576 40.672 68.024 41 66.248 41H60.8V24.32H66.248ZM66.248 38.768C68.2 38.768 69.696 38.24 70.736 37.184C71.776 36.128 72.296 34.64 72.296 32.72C72.296 30.784 71.776 29.272 70.736 28.184C69.696 27.096 68.2 26.552 66.248 26.552H63.536V38.768H66.248ZM76.9036 34.328C76.9036 33 77.1756 31.824 77.7196 30.8C78.2796 29.776 79.0316 28.984 79.9756 28.424C80.9356 27.848 81.9916 27.56 83.1436 27.56C84.1836 27.56 85.0876 27.768 85.8556 28.184C86.6396 28.584 87.2636 29.088 87.7276 29.696V27.776H90.4876V41H87.7276V39.032C87.2636 39.656 86.6316 40.176 85.8316 40.592C85.0316 41.008 84.1196 41.216 83.0956 41.216C81.9596 41.216 80.9196 40.928 79.9756 40.352C79.0316 39.76 78.2796 38.944 77.7196 37.904C77.1756 36.848 76.9036 35.656 76.9036 34.328ZM87.7276 34.376C87.7276 33.464 87.5356 32.672 87.1516 32C86.7836 31.328 86.2956 30.816 85.6876 30.464C85.0796 30.112 84.4236 29.936 83.7196 29.936C83.0156 29.936 82.3596 30.112 81.7516 30.464C81.1436 30.8 80.6476 31.304 80.2636 31.976C79.8956 32.632 79.7116 33.416 79.7116 34.328C79.7116 35.24 79.8956 36.04 80.2636 36.728C80.6476 37.416 81.1436 37.944 81.7516 38.312C82.3756 38.664 83.0316 38.84 83.7196 38.84C84.4236 38.84 85.0796 38.664 85.6876 38.312C86.2956 37.96 86.7836 37.448 87.1516 36.776C87.5356 36.088 87.7276 35.288 87.7276 34.376ZM99.6253 30.008H97.1773V41H94.4173V30.008H92.8573V27.776H94.4173V26.84C94.4173 25.32 94.8173 24.216 95.6173 23.528C96.4333 22.824 97.7053 22.472 99.4333 22.472V24.752C98.6013 24.752 98.0173 24.912 97.6813 25.232C97.3453 25.536 97.1773 26.072 97.1773 26.84V27.776H99.6253V30.008ZM105.242 30.008V37.328C105.242 37.824 105.354 38.184 105.578 38.408C105.818 38.616 106.218 38.72 106.778 38.72H108.458V41H106.298C105.066 41 104.122 40.712 103.466 40.136C102.81 39.56 102.482 38.624 102.482 37.328V30.008H100.922V27.776H102.482V24.488H105.242V27.776H108.458V30.008H105.242ZM110.068 34.328C110.068 33 110.34 31.824 110.884 30.8C111.444 29.776 112.196 28.984 113.14 28.424C114.1 27.848 115.156 27.56 116.308 27.56C117.348 27.56 118.252 27.768 119.02 28.184C119.804 28.584 120.428 29.088 120.892 29.696V27.776H123.652V41H120.892V39.032C120.428 39.656 119.796 40.176 118.996 40.592C118.196 41.008 117.284 41.216 116.26 41.216C115.124 41.216 114.084 40.928 113.14 40.352C112.196 39.76 111.444 38.944 110.884 37.904C110.34 36.848 110.068 35.656 110.068 34.328ZM120.892 34.376C120.892 33.464 120.7 32.672 120.316 32C119.948 31.328 119.46 30.816 118.852 30.464C118.244 30.112 117.588 29.936 116.884 29.936C116.18 29.936 115.524 30.112 114.916 30.464C114.308 30.8 113.812 31.304 113.428 31.976C113.06 32.632 112.876 33.416 112.876 34.328C112.876 35.24 113.06 36.04 113.428 36.728C113.812 37.416 114.308 37.944 114.916 38.312C115.54 38.664 116.196 38.84 116.884 38.84C117.588 38.84 118.244 38.664 118.852 38.312C119.46 37.96 119.948 37.448 120.316 36.776C120.7 36.088 120.892 35.288 120.892 34.376ZM129.981 29.696C130.381 29.024 130.909 28.504 131.565 28.136C132.237 27.752 133.029 27.56 133.941 27.56V30.392H133.245C132.173 30.392 131.357 30.664 130.797 31.208C130.253 31.752 129.981 32.696 129.981 34.04V41H127.245V27.776H129.981V29.696ZM154.355 29.288C154.355 30.136 154.155 30.936 153.755 31.688C153.355 32.44 152.715 33.056 151.835 33.536C150.955 34 149.827 34.232 148.451 34.232H145.427V41H142.691V24.32H148.451C149.731 24.32 150.811 24.544 151.691 24.992C152.587 25.424 153.251 26.016 153.683 26.768C154.131 27.52 154.355 28.36 154.355 29.288ZM148.451 32C149.491 32 150.267 31.768 150.779 31.304C151.291 30.824 151.547 30.152 151.547 29.288C151.547 27.464 150.515 26.552 148.451 26.552H145.427V32H148.451ZM169.084 34.064C169.084 34.56 169.052 35.008 168.988 35.408H158.884C158.964 36.464 159.356 37.312 160.06 37.952C160.764 38.592 161.628 38.912 162.652 38.912C164.124 38.912 165.164 38.296 165.772 37.064H168.724C168.324 38.28 167.596 39.28 166.54 40.064C165.5 40.832 164.204 41.216 162.652 41.216C161.388 41.216 160.252 40.936 159.244 40.376C158.252 39.8 157.468 39 156.892 37.976C156.332 36.936 156.052 35.736 156.052 34.376C156.052 33.016 156.324 31.824 156.868 30.8C157.428 29.76 158.204 28.96 159.196 28.4C160.204 27.84 161.356 27.56 162.652 27.56C163.9 27.56 165.012 27.832 165.988 28.376C166.964 28.92 167.724 29.688 168.268 30.68C168.812 31.656 169.084 32.784 169.084 34.064ZM166.228 33.2C166.212 32.192 165.852 31.384 165.148 30.776C164.444 30.168 163.572 29.864 162.532 29.864C161.588 29.864 160.78 30.168 160.108 30.776C159.436 31.368 159.036 32.176 158.908 33.2H166.228ZM174.513 23.24V41H171.777V23.24H174.513ZM177.193 34.328C177.193 33 177.465 31.824 178.009 30.8C178.569 29.776 179.321 28.984 180.265 28.424C181.225 27.848 182.281 27.56 183.433 27.56C184.473 27.56 185.377 27.768 186.145 28.184C186.929 28.584 187.553 29.088 188.017 29.696V27.776H190.777V41H188.017V39.032C187.553 39.656 186.921 40.176 186.121 40.592C185.321 41.008 184.409 41.216 183.385 41.216C182.249 41.216 181.209 40.928 180.265 40.352C179.321 39.76 178.569 38.944 178.009 37.904C177.465 36.848 177.193 35.656 177.193 34.328ZM188.017 34.376C188.017 33.464 187.825 32.672 187.441 32C187.073 31.328 186.585 30.816 185.977 30.464C185.369 30.112 184.713 29.936 184.009 29.936C183.305 29.936 182.649 30.112 182.041 30.464C181.433 30.8 180.937 31.304 180.553 31.976C180.185 32.632 180.001 33.416 180.001 34.328C180.001 35.24 180.185 36.04 180.553 36.728C180.937 37.416 181.433 37.944 182.041 38.312C182.665 38.664 183.321 38.84 184.009 38.84C184.713 38.84 185.369 38.664 185.977 38.312C186.585 37.96 187.073 37.448 187.441 36.776C187.825 36.088 188.017 35.288 188.017 34.376ZM210.378 27.56C211.418 27.56 212.346 27.776 213.162 28.208C213.994 28.64 214.642 29.28 215.106 30.128C215.586 30.976 215.826 32 215.826 33.2V41H213.114V33.608C213.114 32.424 212.818 31.52 212.226 30.896C211.634 30.256 210.826 29.936 209.802 29.936C208.778 29.936 207.962 30.256 207.354 30.896C206.762 31.52 206.466 32.424 206.466 33.608V41H203.754V33.608C203.754 32.424 203.458 31.52 202.866 30.896C202.274 30.256 201.466 29.936 200.442 29.936C199.418 29.936 198.602 30.256 197.994 30.896C197.402 31.52 197.106 32.424 197.106 33.608V41H194.37V27.776H197.106V29.288C197.554 28.744 198.122 28.32 198.81 28.016C199.498 27.712 200.234 27.56 201.018 27.56C202.074 27.56 203.018 27.784 203.85 28.232C204.682 28.68 205.322 29.328 205.77 30.176C206.17 29.376 206.794 28.744 207.642 28.28C208.49 27.8 209.402 27.56 210.378 27.56ZM218.396 34.328C218.396 33 218.668 31.824 219.212 30.8C219.772 29.776 220.524 28.984 221.468 28.424C222.428 27.848 223.484 27.56 224.636 27.56C225.676 27.56 226.58 27.768 227.348 28.184C228.132 28.584 228.756 29.088 229.22 29.696V27.776H231.98V41H229.22V39.032C228.756 39.656 228.124 40.176 227.324 40.592C226.524 41.008 225.612 41.216 224.588 41.216C223.452 41.216 222.412 40.928 221.468 40.352C220.524 39.76 219.772 38.944 219.212 37.904C218.668 36.848 218.396 35.656 218.396 34.328ZM229.22 34.376C229.22 33.464 229.028 32.672 228.644 32C228.276 31.328 227.788 30.816 227.18 30.464C226.572 30.112 225.916 29.936 225.212 29.936C224.508 29.936 223.852 30.112 223.244 30.464C222.636 30.8 222.14 31.304 221.756 31.976C221.388 32.632 221.204 33.416 221.204 34.328C221.204 35.24 221.388 36.04 221.756 36.728C222.14 37.416 222.636 37.944 223.244 38.312C223.868 38.664 224.524 38.84 225.212 38.84C225.916 38.84 226.572 38.664 227.18 38.312C227.788 37.96 228.276 37.448 228.644 36.776C229.028 36.088 229.22 35.288 229.22 34.376ZM238.309 29.696C238.709 29.024 239.237 28.504 239.893 28.136C240.565 27.752 241.357 27.56 242.269 27.56V30.392H241.573C240.501 30.392 239.685 30.664 239.125 31.208C238.581 31.752 238.309 32.696 238.309 34.04V41H235.573V27.776H238.309V29.696ZM261.795 24.32V26.552H257.355V41H254.619V26.552H250.155V24.32H261.795ZM276.686 34.064C276.686 34.56 276.654 35.008 276.59 35.408H266.486C266.566 36.464 266.958 37.312 267.662 37.952C268.366 38.592 269.23 38.912 270.254 38.912C271.726 38.912 272.766 38.296 273.374 37.064H276.326C275.926 38.28 275.198 39.28 274.142 40.064C273.102 40.832 271.806 41.216 270.254 41.216C268.99 41.216 267.854 40.936 266.846 40.376C265.854 39.8 265.07 39 264.494 37.976C263.934 36.936 263.654 35.736 263.654 34.376C263.654 33.016 263.926 31.824 264.47 30.8C265.03 29.76 265.806 28.96 266.798 28.4C267.806 27.84 268.958 27.56 270.254 27.56C271.502 27.56 272.614 27.832 273.59 28.376C274.566 28.92 275.326 29.688 275.87 30.68C276.414 31.656 276.686 32.784 276.686 34.064ZM273.83 33.2C273.814 32.192 273.454 31.384 272.75 30.776C272.046 30.168 271.174 29.864 270.134 29.864C269.19 29.864 268.382 30.168 267.71 30.776C267.038 31.368 266.638 32.176 266.51 33.2H273.83ZM282.114 29.696C282.514 29.024 283.042 28.504 283.698 28.136C284.37 27.752 285.162 27.56 286.074 27.56V30.392H285.378C284.306 30.392 283.49 30.664 282.93 31.208C282.386 31.752 282.114 32.696 282.114 34.04V41H279.378V27.776H282.114V29.696ZM293.821 34.4L299.917 41H296.221L291.325 35.312V41H288.589V23.24H291.325V33.56L296.125 27.776H299.917L293.821 34.4ZM303.27 26.024C302.774 26.024 302.358 25.856 302.022 25.52C301.686 25.184 301.518 24.768 301.518 24.272C301.518 23.776 301.686 23.36 302.022 23.024C302.358 22.688 302.774 22.52 303.27 22.52C303.75 22.52 304.158 22.688 304.494 23.024C304.83 23.36 304.998 23.776 304.998 24.272C304.998 24.768 304.83 25.184 304.494 25.52C304.158 25.856 303.75 26.024 303.27 26.024ZM304.614 27.776V41H301.878V27.776H304.614ZM314.878 27.56C315.918 27.56 316.846 27.776 317.662 28.208C318.494 28.64 319.142 29.28 319.606 30.128C320.07 30.976 320.302 32 320.302 33.2V41H317.59V33.608C317.59 32.424 317.294 31.52 316.702 30.896C316.11 30.256 315.302 29.936 314.278 29.936C313.254 29.936 312.438 30.256 311.83 30.896C311.238 31.52 310.942 32.424 310.942 33.608V41H308.206V27.776H310.942V29.288C311.39 28.744 311.958 28.32 312.646 28.016C313.35 27.712 314.094 27.56 314.878 27.56ZM325.184 26.024C324.688 26.024 324.272 25.856 323.936 25.52C323.6 25.184 323.432 24.768 323.432 24.272C323.432 23.776 323.6 23.36 323.936 23.024C324.272 22.688 324.688 22.52 325.184 22.52C325.664 22.52 326.072 22.688 326.408 23.024C326.744 23.36 326.912 23.776 326.912 24.272C326.912 24.768 326.744 25.184 326.408 25.52C326.072 25.856 325.664 26.024 325.184 26.024ZM326.528 27.776V41H323.792V27.776H326.528Z" fill="#1C1F37"/>
</g>
<defs>
<filter id="filter0_dd_1713:24885" x="0" y="0" width="1125" height="74" filterUnits="userSpaceOnUse" color-interpolation-filters="sRGB">
<feFlood flood-opacity="0" result="BackgroundImageFix"/>
<feColorMatrix in="SourceAlpha" type="matrix" values="0 0 0 0 0 0 0 0 0 0 0 0 0 0 0 0 0 0 127 0" result="hardAlpha"/>
<feMorphology radius="1" operator="erode" in="SourceAlpha" result="effect1_dropShadow_1713:24885"/>
<feOffset dy="2"/>
<feGaussianBlur stdDeviation="2"/>
<feColorMatrix type="matrix" values="0 0 0 0 0 0 0 0 0 0 0 0 0 0 0 0 0 0 0.06 0"/>
<feBlend mode="normal" in2="BackgroundImageFix" result="effect1_dropShadow_1713:24885"/>
<feColorMatrix in="SourceAlpha" type="matrix" values="0 0 0 0 0 0 0 0 0 0 0 0 0 0 0 0 0 0 127 0" result="hardAlpha"/>
<feMorphology radius="1" operator="erode" in="SourceAlpha" result="effect2_dropShadow_1713:24885"/>
<feOffset dy="4"/>
<feGaussianBlur stdDeviation="3"/>
<feColorMatrix type="matrix" values="0 0 0 0 0 0 0 0 0 0 0 0 0 0 0 0 0 0 0.1 0"/>
<feBlend mode="normal" in2="effect1_dropShadow_1713:24885" result="effect2_dropShadow_1713:24885"/>
<feBlend mode="normal" in="SourceGraphic" in2="effect2_dropShadow_1713:24885" result="shape"/>
</filter>
</defs>
</svg>
