<svg width="265" height="1024" viewBox="0 0 265 1024" fill="none" xmlns="http://www.w3.org/2000/svg">
<rect width="265" height="1024" fill="#081A51"/>
<rect x="25" y="24" width="40" height="40" rx="8" fill="#017EFA"/>
<path d="M45 34C39.486 34 35 38.486 35 44C35 49.514 39.486 54 45 54C50.514 54 55 49.514 55 44C55 38.486 50.514 34 45 34ZM45 52C40.589 52 37 48.411 37 44C37 39.589 40.589 36 45 36C49.411 36 53 39.589 53 44C53 48.411 49.411 52 45 52Z" fill="white"/>
<path d="M46 38L40 45H44V50L50 43H46V38Z" fill="white"/>
<path d="M85.4805 47.2656V53.5H80.8516V36.3672H86.4648C91.1211 36.3672 93.4492 38.0547 93.4492 41.4297C93.4492 43.4141 92.4805 44.9492 90.543 46.0352L95.5352 53.5H90.2852L86.6523 47.2656H85.4805ZM85.4805 43.7852H86.3477C87.9648 43.7852 88.7734 43.0703 88.7734 41.6406C88.7734 40.4609 87.9805 39.8711 86.3945 39.8711H85.4805V43.7852ZM103.234 53.7344C101.023 53.7344 99.3047 53.1484 98.0781 51.9766C96.8594 50.7969 96.25 49.1211 96.25 46.9492C96.25 44.707 96.8164 42.9883 97.9492 41.793C99.082 40.5898 100.699 39.9883 102.801 39.9883C104.801 39.9883 106.344 40.5117 107.43 41.5586C108.523 42.5977 109.07 44.0977 109.07 46.0586V48.0977H100.879C100.91 48.8398 101.18 49.4219 101.688 49.8438C102.203 50.2656 102.902 50.4766 103.785 50.4766C104.59 50.4766 105.328 50.4023 106 50.2539C106.68 50.0977 107.414 49.8359 108.203 49.4688V52.7617C107.484 53.1289 106.742 53.3828 105.977 53.5234C105.211 53.6641 104.297 53.7344 103.234 53.7344ZM102.965 43.1055C102.426 43.1055 101.973 43.2773 101.605 43.6211C101.246 43.957 101.035 44.4883 100.973 45.2148H104.91C104.895 44.5742 104.711 44.0625 104.359 43.6797C104.016 43.2969 103.551 43.1055 102.965 43.1055ZM117.707 53.7344C115.535 53.7344 113.887 53.1484 112.762 51.9766C111.645 50.8047 111.086 49.1211 111.086 46.9258C111.086 44.7227 111.691 43.0156 112.902 41.8047C114.113 40.5938 115.836 39.9883 118.07 39.9883C119.609 39.9883 121.059 40.3242 122.418 40.9961L121.07 44.3828C120.516 44.1406 120.004 43.9492 119.535 43.8086C119.066 43.6602 118.578 43.5859 118.07 43.5859C117.328 43.5859 116.754 43.875 116.348 44.4531C115.941 45.0312 115.738 45.8477 115.738 46.9023C115.738 49.0273 116.523 50.0898 118.094 50.0898C119.438 50.0898 120.727 49.6992 121.961 48.918V52.5625C120.781 53.3438 119.363 53.7344 117.707 53.7344ZM132.613 39.9883C133.012 39.9883 133.391 40.0195 133.75 40.082L134.008 40.1289L133.598 44.4531C133.223 44.3594 132.703 44.3125 132.039 44.3125C131.039 44.3125 130.312 44.543 129.859 45.0039C129.406 45.457 129.18 46.1133 129.18 46.9727V53.5H124.598V40.2227H128.008L128.723 42.3438H128.945C129.328 41.6406 129.859 41.0742 130.539 40.6445C131.227 40.207 131.918 39.9883 132.613 39.9883ZM145.328 53.5L144.754 51.8477H144.484C144.102 52.457 143.566 52.9258 142.879 53.2539C142.199 53.5742 141.398 53.7344 140.477 53.7344C139.016 53.7344 137.879 53.3125 137.066 52.4688C136.254 51.6172 135.848 50.418 135.848 48.8711V40.2227H140.43V47.4766C140.43 48.3438 140.551 49 140.793 49.4453C141.043 49.8906 141.449 50.1133 142.012 50.1133C142.801 50.1133 143.363 49.8047 143.699 49.1875C144.035 48.5625 144.203 47.5117 144.203 46.0352V40.2227H148.785V53.5H145.328ZM156.555 53.5H151.973V40.2227H156.555V53.5ZM151.855 36.918C151.855 36.2305 152.047 35.7188 152.43 35.3828C152.812 35.0469 153.43 34.8789 154.281 34.8789C155.133 34.8789 155.754 35.0508 156.145 35.3945C156.535 35.7383 156.73 36.2461 156.73 36.918C156.73 38.2617 155.914 38.9336 154.281 38.9336C152.664 38.9336 151.855 38.2617 151.855 36.918ZM166.258 50.1133C166.875 50.1133 167.613 49.9609 168.473 49.6562V52.9961C167.855 53.2617 167.266 53.4492 166.703 53.5586C166.148 53.6758 165.496 53.7344 164.746 53.7344C163.207 53.7344 162.098 53.3594 161.418 52.6094C160.738 51.8516 160.398 50.6914 160.398 49.1289V43.6562H158.793V41.793L160.832 40.3516L162.016 37.5625H165.016V40.2227H168.273V43.6562H165.016V48.8242C165.016 49.6836 165.43 50.1133 166.258 50.1133ZM187.094 53.5V46.2812C187.094 45.3828 186.969 44.7109 186.719 44.2656C186.477 43.8125 186.09 43.5859 185.559 43.5859C184.855 43.5859 184.34 43.8867 184.012 44.4883C183.684 45.0898 183.52 46.0312 183.52 47.3125V53.5H178.926V46.2812C178.926 45.3828 178.809 44.7109 178.574 44.2656C178.34 43.8125 177.961 43.5859 177.438 43.5859C176.719 43.5859 176.195 43.9062 175.867 44.5469C175.539 45.1875 175.375 46.2344 175.375 47.6875V53.5H170.793V40.2227H174.25L174.824 41.8633H175.094C175.445 41.2539 175.953 40.7891 176.617 40.4688C177.289 40.1484 178.051 39.9883 178.902 39.9883C180.816 39.9883 182.16 40.5703 182.934 41.7344H183.297C183.672 41.1875 184.191 40.7617 184.855 40.457C185.527 40.1445 186.266 39.9883 187.07 39.9883C188.641 39.9883 189.801 40.3906 190.551 41.1953C191.301 42 191.676 43.2227 191.676 44.8633V53.5H187.094ZM201.203 53.7344C198.992 53.7344 197.273 53.1484 196.047 51.9766C194.828 50.7969 194.219 49.1211 194.219 46.9492C194.219 44.707 194.785 42.9883 195.918 41.793C197.051 40.5898 198.668 39.9883 200.77 39.9883C202.77 39.9883 204.312 40.5117 205.398 41.5586C206.492 42.5977 207.039 44.0977 207.039 46.0586V48.0977H198.848C198.879 48.8398 199.148 49.4219 199.656 49.8438C200.172 50.2656 200.871 50.4766 201.754 50.4766C202.559 50.4766 203.297 50.4023 203.969 50.2539C204.648 50.0977 205.383 49.8359 206.172 49.4688V52.7617C205.453 53.1289 204.711 53.3828 203.945 53.5234C203.18 53.6641 202.266 53.7344 201.203 53.7344ZM200.934 43.1055C200.395 43.1055 199.941 43.2773 199.574 43.6211C199.215 43.957 199.004 44.4883 198.941 45.2148H202.879C202.863 44.5742 202.68 44.0625 202.328 43.6797C201.984 43.2969 201.52 43.1055 200.934 43.1055ZM218.008 53.5V46.2578C218.008 45.375 217.879 44.7109 217.621 44.2656C217.371 43.8125 216.965 43.5859 216.402 43.5859C215.629 43.5859 215.07 43.8945 214.727 44.5117C214.383 45.1289 214.211 46.1875 214.211 47.6875V53.5H209.629V40.2227H213.086L213.66 41.8633H213.93C214.32 41.2383 214.859 40.7695 215.547 40.457C216.242 40.1445 217.039 39.9883 217.938 39.9883C219.406 39.9883 220.547 40.4141 221.359 41.2656C222.18 42.1172 222.59 43.3164 222.59 44.8633V53.5H218.008ZM232.211 50.1133C232.828 50.1133 233.566 49.9609 234.426 49.6562V52.9961C233.809 53.2617 233.219 53.4492 232.656 53.5586C232.102 53.6758 231.449 53.7344 230.699 53.7344C229.16 53.7344 228.051 53.3594 227.371 52.6094C226.691 51.8516 226.352 50.6914 226.352 49.1289V43.6562H224.746V41.793L226.785 40.3516L227.969 37.5625H230.969V40.2227H234.227V43.6562H230.969V48.8242C230.969 49.6836 231.383 50.1133 232.211 50.1133Z" fill="white"/>
<path d="M10 102C10 97.5817 13.5817 94 18 94H247C251.418 94 255 97.5817 255 102V145C255 149.418 251.418 153 247 153H18C13.5817 153 10 149.418 10 145V102Z" fill="#3555C5"/>
<path d="M41.19 113.5H32.81C29.17 113.5 27 115.67 27 119.31V127.68C27 131.33 29.17 133.5 32.81 133.5H41.18C44.82 133.5 46.99 131.33 46.99 127.69V119.31C47 115.67 44.83 113.5 41.19 113.5ZM34.91 127.69C34.91 128.33 34.39 128.85 33.74 128.85C33.1 128.85 32.58 128.33 32.58 127.69V124.43C32.58 123.79 33.1 123.27 33.74 123.27C34.39 123.27 34.91 123.79 34.91 124.43V127.69ZM41.42 127.69C41.42 128.33 40.9 128.85 40.26 128.85C39.61 128.85 39.09 128.33 39.09 127.69V119.31C39.09 118.67 39.61 118.15 40.26 118.15C40.9 118.15 41.42 118.67 41.42 119.31V127.69Z" fill="white"/>
<path d="M62.436 117.49C63.768 117.49 64.932 117.748 65.928 118.264C66.936 118.768 67.71 119.5 68.25 120.46C68.802 121.408 69.078 122.518 69.078 123.79C69.078 125.062 68.802 126.166 68.25 127.102C67.71 128.038 66.936 128.758 65.928 129.262C64.932 129.754 63.768 130 62.436 130H58.35V117.49H62.436ZM62.436 128.326C63.9 128.326 65.022 127.93 65.802 127.138C66.582 126.346 66.972 125.23 66.972 123.79C66.972 122.338 66.582 121.204 65.802 120.388C65.022 119.572 63.9 119.164 62.436 119.164H60.402V128.326H62.436ZM70.4277 124.996C70.4277 124 70.6317 123.118 71.0397 122.35C71.4597 121.582 72.0237 120.988 72.7317 120.568C73.4517 120.136 74.2437 119.92 75.1077 119.92C75.8877 119.92 76.5657 120.076 77.1417 120.388C77.7297 120.688 78.1977 121.066 78.5457 121.522V120.082H80.6157V130H78.5457V128.524C78.1977 128.992 77.7237 129.382 77.1237 129.694C76.5237 130.006 75.8397 130.162 75.0717 130.162C74.2197 130.162 73.4397 129.946 72.7317 129.514C72.0237 129.07 71.4597 128.458 71.0397 127.678C70.6317 126.886 70.4277 125.992 70.4277 124.996ZM78.5457 125.032C78.5457 124.348 78.4017 123.754 78.1137 123.25C77.8377 122.746 77.4717 122.362 77.0157 122.098C76.5597 121.834 76.0677 121.702 75.5397 121.702C75.0117 121.702 74.5197 121.834 74.0637 122.098C73.6077 122.35 73.2357 122.728 72.9477 123.232C72.6717 123.724 72.5337 124.312 72.5337 124.996C72.5337 125.68 72.6717 126.28 72.9477 126.796C73.2357 127.312 73.6077 127.708 74.0637 127.984C74.5317 128.248 75.0237 128.38 75.5397 128.38C76.0677 128.38 76.5597 128.248 77.0157 127.984C77.4717 127.72 77.8377 127.336 78.1137 126.832C78.4017 126.316 78.5457 125.716 78.5457 125.032ZM86.9109 130.162C86.1309 130.162 85.4289 130.024 84.8049 129.748C84.1929 129.46 83.7069 129.076 83.3469 128.596C82.9869 128.104 82.7949 127.558 82.7709 126.958H84.8949C84.9309 127.378 85.1289 127.732 85.4889 128.02C85.8609 128.296 86.3229 128.434 86.8749 128.434C87.4509 128.434 87.8949 128.326 88.2069 128.11C88.5309 127.882 88.6929 127.594 88.6929 127.246C88.6929 126.874 88.5129 126.598 88.1529 126.418C87.8049 126.238 87.2469 126.04 86.4789 125.824C85.7349 125.62 85.1289 125.422 84.6609 125.23C84.1929 125.038 83.7849 124.744 83.4369 124.348C83.1009 123.952 82.9329 123.43 82.9329 122.782C82.9329 122.254 83.0889 121.774 83.4009 121.342C83.7129 120.898 84.1569 120.55 84.7329 120.298C85.3209 120.046 85.9929 119.92 86.7489 119.92C87.8769 119.92 88.7829 120.208 89.4669 120.784C90.1629 121.348 90.5349 122.122 90.5829 123.106H88.5309C88.4949 122.662 88.3149 122.308 87.9909 122.044C87.6669 121.78 87.2289 121.648 86.6769 121.648C86.1369 121.648 85.7229 121.75 85.4349 121.954C85.1469 122.158 85.0029 122.428 85.0029 122.764C85.0029 123.028 85.0989 123.25 85.2909 123.43C85.4829 123.61 85.7169 123.754 85.9929 123.862C86.2689 123.958 86.6769 124.084 87.2169 124.24C87.9369 124.432 88.5249 124.63 88.9809 124.834C89.4489 125.026 89.8509 125.314 90.1869 125.698C90.5229 126.082 90.6969 126.592 90.7089 127.228C90.7089 127.792 90.5529 128.296 90.2409 128.74C89.9289 129.184 89.4849 129.532 88.9089 129.784C88.3449 130.036 87.6789 130.162 86.9109 130.162ZM98.0562 119.92C98.8122 119.92 99.4842 120.082 100.072 120.406C100.672 120.73 101.14 121.21 101.476 121.846C101.824 122.482 101.998 123.25 101.998 124.15V130H99.9642V124.456C99.9642 123.568 99.7422 122.89 99.2982 122.422C98.8542 121.942 98.2482 121.702 97.4802 121.702C96.7122 121.702 96.1002 121.942 95.6442 122.422C95.2002 122.89 94.9782 123.568 94.9782 124.456V130H92.9262V116.68H94.9782V121.234C95.3262 120.814 95.7642 120.49 96.2922 120.262C96.8322 120.034 97.4202 119.92 98.0562 119.92ZM106.668 121.558C107.016 121.078 107.49 120.688 108.09 120.388C108.702 120.076 109.38 119.92 110.124 119.92C111 119.92 111.792 120.13 112.5 120.55C113.208 120.97 113.766 121.57 114.174 122.35C114.582 123.118 114.786 124 114.786 124.996C114.786 125.992 114.582 126.886 114.174 127.678C113.766 128.458 113.202 129.07 112.482 129.514C111.774 129.946 110.988 130.162 110.124 130.162C109.356 130.162 108.672 130.012 108.072 129.712C107.484 129.412 107.016 129.028 106.668 128.56V130H104.616V116.68H106.668V121.558ZM112.698 124.996C112.698 124.312 112.554 123.724 112.266 123.232C111.99 122.728 111.618 122.35 111.15 122.098C110.694 121.834 110.202 121.702 109.674 121.702C109.158 121.702 108.666 121.834 108.198 122.098C107.742 122.362 107.37 122.746 107.082 123.25C106.806 123.754 106.668 124.348 106.668 125.032C106.668 125.716 106.806 126.316 107.082 126.832C107.37 127.336 107.742 127.72 108.198 127.984C108.666 128.248 109.158 128.38 109.674 128.38C110.202 128.38 110.694 128.248 111.15 127.984C111.618 127.708 111.99 127.312 112.266 126.796C112.554 126.28 112.698 125.68 112.698 124.996ZM121.117 130.162C120.181 130.162 119.335 129.952 118.579 129.532C117.823 129.1 117.229 128.5 116.797 127.732C116.365 126.952 116.149 126.052 116.149 125.032C116.149 124.024 116.371 123.13 116.815 122.35C117.259 121.57 117.865 120.97 118.633 120.55C119.401 120.13 120.259 119.92 121.207 119.92C122.155 119.92 123.013 120.13 123.781 120.55C124.549 120.97 125.155 121.57 125.599 122.35C126.043 123.13 126.265 124.024 126.265 125.032C126.265 126.04 126.037 126.934 125.581 127.714C125.125 128.494 124.501 129.1 123.709 129.532C122.929 129.952 122.065 130.162 121.117 130.162ZM121.117 128.38C121.645 128.38 122.137 128.254 122.593 128.002C123.061 127.75 123.439 127.372 123.727 126.868C124.015 126.364 124.159 125.752 124.159 125.032C124.159 124.312 124.021 123.706 123.745 123.214C123.469 122.71 123.103 122.332 122.647 122.08C122.191 121.828 121.699 121.702 121.171 121.702C120.643 121.702 120.151 121.828 119.695 122.08C119.251 122.332 118.897 122.71 118.633 123.214C118.369 123.706 118.237 124.312 118.237 125.032C118.237 126.1 118.507 126.928 119.047 127.516C119.599 128.092 120.289 128.38 121.117 128.38ZM127.609 124.996C127.609 124 127.813 123.118 128.221 122.35C128.641 121.582 129.205 120.988 129.913 120.568C130.633 120.136 131.425 119.92 132.289 119.92C133.069 119.92 133.747 120.076 134.323 120.388C134.911 120.688 135.379 121.066 135.727 121.522V120.082H137.797V130H135.727V128.524C135.379 128.992 134.905 129.382 134.305 129.694C133.705 130.006 133.021 130.162 132.253 130.162C131.401 130.162 130.621 129.946 129.913 129.514C129.205 129.07 128.641 128.458 128.221 127.678C127.813 126.886 127.609 125.992 127.609 124.996ZM135.727 125.032C135.727 124.348 135.583 123.754 135.295 123.25C135.019 122.746 134.653 122.362 134.197 122.098C133.741 121.834 133.249 121.702 132.721 121.702C132.193 121.702 131.701 121.834 131.245 122.098C130.789 122.35 130.417 122.728 130.129 123.232C129.853 123.724 129.715 124.312 129.715 124.996C129.715 125.68 129.853 126.28 130.129 126.796C130.417 127.312 130.789 127.708 131.245 127.984C131.713 128.248 132.205 128.38 132.721 128.38C133.249 128.38 133.741 128.248 134.197 127.984C134.653 127.72 135.019 127.336 135.295 126.832C135.583 126.316 135.727 125.716 135.727 125.032ZM142.545 121.522C142.845 121.018 143.241 120.628 143.733 120.352C144.237 120.064 144.831 119.92 145.515 119.92V122.044H144.993C144.189 122.044 143.577 122.248 143.157 122.656C142.749 123.064 142.545 123.772 142.545 124.78V130H140.493V120.082H142.545V121.522ZM146.717 124.996C146.717 124 146.921 123.118 147.329 122.35C147.749 121.582 148.313 120.988 149.021 120.568C149.741 120.136 150.539 119.92 151.415 119.92C152.063 119.92 152.699 120.064 153.323 120.352C153.959 120.628 154.463 121 154.835 121.468V116.68H156.905V130H154.835V128.506C154.499 128.986 154.031 129.382 153.431 129.694C152.843 130.006 152.165 130.162 151.397 130.162C150.533 130.162 149.741 129.946 149.021 129.514C148.313 129.07 147.749 128.458 147.329 127.678C146.921 126.886 146.717 125.992 146.717 124.996ZM154.835 125.032C154.835 124.348 154.691 123.754 154.403 123.25C154.127 122.746 153.761 122.362 153.305 122.098C152.849 121.834 152.357 121.702 151.829 121.702C151.301 121.702 150.809 121.834 150.353 122.098C149.897 122.35 149.525 122.728 149.237 123.232C148.961 123.724 148.823 124.312 148.823 124.996C148.823 125.68 148.961 126.28 149.237 126.796C149.525 127.312 149.897 127.708 150.353 127.984C150.821 128.248 151.313 128.38 151.829 128.38C152.357 128.38 152.849 128.248 153.305 127.984C153.761 127.72 154.127 127.336 154.403 126.832C154.691 126.316 154.835 125.716 154.835 125.032Z" fill="white"/>
<path d="M31.732 170.144C31.732 170.568 31.632 170.968 31.432 171.344C31.232 171.72 30.912 172.028 30.472 172.268C30.032 172.5 29.468 172.616 28.78 172.616H27.268V176H25.9V167.66H28.78C29.42 167.66 29.96 167.772 30.4 167.996C30.848 168.212 31.18 168.508 31.396 168.884C31.62 169.26 31.732 169.68 31.732 170.144ZM28.78 171.5C29.3 171.5 29.688 171.384 29.944 171.152C30.2 170.912 30.328 170.576 30.328 170.144C30.328 169.232 29.812 168.776 28.78 168.776H27.268V171.5H28.78ZM39.0967 172.532C39.0967 172.78 39.0807 173.004 39.0487 173.204H33.9967C34.0367 173.732 34.2327 174.156 34.5847 174.476C34.9367 174.796 35.3687 174.956 35.8807 174.956C36.6167 174.956 37.1367 174.648 37.4407 174.032H38.9167C38.7167 174.64 38.3527 175.14 37.8247 175.532C37.3047 175.916 36.6567 176.108 35.8807 176.108C35.2487 176.108 34.6807 175.968 34.1767 175.688C33.6807 175.4 33.2887 175 33.0007 174.488C32.7207 173.968 32.5807 173.368 32.5807 172.688C32.5807 172.008 32.7167 171.412 32.9887 170.9C33.2687 170.38 33.6567 169.98 34.1527 169.7C34.6567 169.42 35.2327 169.28 35.8807 169.28C36.5047 169.28 37.0607 169.416 37.5487 169.688C38.0367 169.96 38.4167 170.344 38.6887 170.84C38.9607 171.328 39.0967 171.892 39.0967 172.532ZM37.6687 172.1C37.6607 171.596 37.4807 171.192 37.1287 170.888C36.7767 170.584 36.3407 170.432 35.8207 170.432C35.3487 170.432 34.9447 170.584 34.6087 170.888C34.2727 171.184 34.0727 171.588 34.0087 172.1H37.6687ZM43.779 169.28C44.299 169.28 44.763 169.388 45.171 169.604C45.587 169.82 45.911 170.14 46.143 170.564C46.375 170.988 46.491 171.5 46.491 172.1V176H45.135V172.304C45.135 171.712 44.987 171.26 44.691 170.948C44.395 170.628 43.991 170.468 43.479 170.468C42.967 170.468 42.559 170.628 42.255 170.948C41.959 171.26 41.811 171.712 41.811 172.304V176H40.443V169.388H41.811V170.144C42.035 169.872 42.319 169.66 42.663 169.508C43.015 169.356 43.387 169.28 43.779 169.28ZM50.8999 169.28C51.4119 169.28 51.8639 169.384 52.2559 169.592C52.6559 169.792 52.9679 170.044 53.1919 170.348V169.388H54.5719V176.108C54.5719 176.716 54.4439 177.256 54.1879 177.728C53.9319 178.208 53.5599 178.584 53.0719 178.856C52.5919 179.128 52.0159 179.264 51.3439 179.264C50.4479 179.264 49.7039 179.052 49.1119 178.628C48.5199 178.212 48.1839 177.644 48.1039 176.924H49.4599C49.5639 177.268 49.7839 177.544 50.1199 177.752C50.4639 177.968 50.8719 178.076 51.3439 178.076C51.8959 178.076 52.3399 177.908 52.6759 177.572C53.0199 177.236 53.1919 176.748 53.1919 176.108V175.004C52.9599 175.316 52.6439 175.58 52.2439 175.796C51.8519 176.004 51.4039 176.108 50.8999 176.108C50.3239 176.108 49.7959 175.964 49.3159 175.676C48.8439 175.38 48.4679 174.972 48.1879 174.452C47.9159 173.924 47.7799 173.328 47.7799 172.664C47.7799 172 47.9159 171.412 48.1879 170.9C48.4679 170.388 48.8439 169.992 49.3159 169.712C49.7959 169.424 50.3239 169.28 50.8999 169.28ZM53.1919 172.688C53.1919 172.232 53.0959 171.836 52.9039 171.5C52.7199 171.164 52.4759 170.908 52.1719 170.732C51.8679 170.556 51.5399 170.468 51.1879 170.468C50.8359 170.468 50.5079 170.556 50.2039 170.732C49.8999 170.9 49.6519 171.152 49.4599 171.488C49.2759 171.816 49.1839 172.208 49.1839 172.664C49.1839 173.12 49.2759 173.52 49.4599 173.864C49.6519 174.208 49.8999 174.472 50.2039 174.656C50.5159 174.832 50.8439 174.92 51.1879 174.92C51.5399 174.92 51.8679 174.832 52.1719 174.656C52.4759 174.48 52.7199 174.224 52.9039 173.888C53.0959 173.544 53.1919 173.144 53.1919 172.688ZM55.9128 172.664C55.9128 172 56.0488 171.412 56.3208 170.9C56.6008 170.388 56.9768 169.992 57.4488 169.712C57.9288 169.424 58.4568 169.28 59.0328 169.28C59.5528 169.28 60.0048 169.384 60.3888 169.592C60.7808 169.792 61.0928 170.044 61.3248 170.348V169.388H62.7048V176H61.3248V175.016C61.0928 175.328 60.7768 175.588 60.3768 175.796C59.9768 176.004 59.5208 176.108 59.0088 176.108C58.4408 176.108 57.9208 175.964 57.4488 175.676C56.9768 175.38 56.6008 174.972 56.3208 174.452C56.0488 173.924 55.9128 173.328 55.9128 172.664ZM61.3248 172.688C61.3248 172.232 61.2288 171.836 61.0368 171.5C60.8528 171.164 60.6088 170.908 60.3048 170.732C60.0008 170.556 59.6728 170.468 59.3208 170.468C58.9688 170.468 58.6408 170.556 58.3368 170.732C58.0328 170.9 57.7848 171.152 57.5928 171.488C57.4088 171.816 57.3168 172.208 57.3168 172.664C57.3168 173.12 57.4088 173.52 57.5928 173.864C57.7848 174.208 58.0328 174.472 58.3368 174.656C58.6488 174.832 58.9768 174.92 59.3208 174.92C59.6728 174.92 60.0008 174.832 60.3048 174.656C60.6088 174.48 60.8528 174.224 61.0368 173.888C61.2288 173.544 61.3248 173.144 61.3248 172.688ZM66.0976 170.504V174.164C66.0976 174.412 66.1536 174.592 66.2656 174.704C66.3856 174.808 66.5856 174.86 66.8656 174.86H67.7056V176H66.6256C66.0096 176 65.5376 175.856 65.2096 175.568C64.8816 175.28 64.7176 174.812 64.7176 174.164V170.504H63.9376V169.388H64.7176V167.744H66.0976V169.388H67.7056V170.504H66.0976ZM74.9544 169.388V176H73.5864V175.22C73.3704 175.492 73.0864 175.708 72.7344 175.868C72.3904 176.02 72.0224 176.096 71.6304 176.096C71.1104 176.096 70.6424 175.988 70.2264 175.772C69.8184 175.556 69.4944 175.236 69.2544 174.812C69.0224 174.388 68.9064 173.876 68.9064 173.276V169.388H70.2624V173.072C70.2624 173.664 70.4104 174.12 70.7064 174.44C71.0024 174.752 71.4064 174.908 71.9184 174.908C72.4304 174.908 72.8344 174.752 73.1304 174.44C73.4344 174.12 73.5864 173.664 73.5864 173.072V169.388H74.9544ZM78.1274 170.348C78.3274 170.012 78.5914 169.752 78.9194 169.568C79.2554 169.376 79.6514 169.28 80.1074 169.28V170.696H79.7594C79.2234 170.696 78.8154 170.832 78.5354 171.104C78.2634 171.376 78.1274 171.848 78.1274 172.52V176H76.7594V169.388H78.1274V170.348ZM80.9088 172.664C80.9088 172 81.0448 171.412 81.3168 170.9C81.5968 170.388 81.9728 169.992 82.4448 169.712C82.9248 169.424 83.4528 169.28 84.0288 169.28C84.5488 169.28 85.0008 169.384 85.3848 169.592C85.7768 169.792 86.0888 170.044 86.3208 170.348V169.388H87.7008V176H86.3208V175.016C86.0888 175.328 85.7728 175.588 85.3728 175.796C84.9728 176.004 84.5168 176.108 84.0048 176.108C83.4368 176.108 82.9168 175.964 82.4448 175.676C81.9728 175.38 81.5968 174.972 81.3168 174.452C81.0448 173.924 80.9088 173.328 80.9088 172.664ZM86.3208 172.688C86.3208 172.232 86.2248 171.836 86.0328 171.5C85.8488 171.164 85.6048 170.908 85.3008 170.732C84.9968 170.556 84.6688 170.468 84.3168 170.468C83.9648 170.468 83.6368 170.556 83.3328 170.732C83.0288 170.9 82.7808 171.152 82.5888 171.488C82.4048 171.816 82.3128 172.208 82.3128 172.664C82.3128 173.12 82.4048 173.52 82.5888 173.864C82.7808 174.208 83.0288 174.472 83.3328 174.656C83.6448 174.832 83.9728 174.92 84.3168 174.92C84.6688 174.92 84.9968 174.832 85.3008 174.656C85.6048 174.48 85.8488 174.224 86.0328 173.888C86.2248 173.544 86.3208 173.144 86.3208 172.688ZM92.8337 169.28C93.3537 169.28 93.8177 169.388 94.2257 169.604C94.6417 169.82 94.9657 170.14 95.1977 170.564C95.4297 170.988 95.5457 171.5 95.5457 172.1V176H94.1897V172.304C94.1897 171.712 94.0417 171.26 93.7457 170.948C93.4497 170.628 93.0457 170.468 92.5337 170.468C92.0217 170.468 91.6137 170.628 91.3097 170.948C91.0137 171.26 90.8657 171.712 90.8657 172.304V176H89.4977V169.388H90.8657V170.144C91.0897 169.872 91.3737 169.66 91.7177 169.508C92.0697 169.356 92.4417 169.28 92.8337 169.28Z" fill="#51CBFF"/>
<path d="M30 216.5C28.34 216.5 27 217.84 27 219.5V227.5C27 229.16 28.34 230.5 30 230.5H31.5C32.6 230.5 33.5 229.6 33.5 228.5V218.5C33.5 217.4 32.6 216.5 31.5 216.5H30ZM31 225.5C31 225.91 30.66 226.25 30.25 226.25C29.84 226.25 29.5 225.91 29.5 225.5V221.5C29.5 221.09 29.84 220.75 30.25 220.75C30.66 220.75 31 221.09 31 221.5V225.5Z" fill="#CCD2E3"/>
<path d="M44 210.5H38C36.34 210.5 35 211.84 35 213.5V227.5C35 229.16 36.34 230.5 38 230.5H38.5C38.78 230.5 39 230.28 39 230V226.5C39 225.95 39.45 225.5 40 225.5H42C42.55 225.5 43 225.95 43 226.5V230C43 230.28 43.22 230.5 43.5 230.5H44C45.66 230.5 47 229.16 47 227.5V213.5C47 211.84 45.66 210.5 44 210.5ZM39.75 221.5C39.75 221.91 39.41 222.25 39 222.25C38.59 222.25 38.25 221.91 38.25 221.5V216.5C38.25 216.09 38.59 215.75 39 215.75C39.41 215.75 39.75 216.09 39.75 216.5V221.5ZM43.75 221.5C43.75 221.91 43.41 222.25 43 222.25C42.59 222.25 42.25 221.91 42.25 221.5V216.5C42.25 216.09 42.59 215.75 43 215.75C43.41 215.75 43.75 216.09 43.75 216.5V221.5Z" fill="#CCD2E3"/>
<path d="M62.436 214.49C63.768 214.49 64.932 214.748 65.928 215.264C66.936 215.768 67.71 216.5 68.25 217.46C68.802 218.408 69.078 219.518 69.078 220.79C69.078 222.062 68.802 223.166 68.25 224.102C67.71 225.038 66.936 225.758 65.928 226.262C64.932 226.754 63.768 227 62.436 227H58.35V214.49H62.436ZM62.436 225.326C63.9 225.326 65.022 224.93 65.802 224.138C66.582 223.346 66.972 222.23 66.972 220.79C66.972 219.338 66.582 218.204 65.802 217.388C65.022 216.572 63.9 216.164 62.436 216.164H60.402V225.326H62.436ZM80.2017 221.798C80.2017 222.17 80.1777 222.506 80.1297 222.806H72.5517C72.6117 223.598 72.9057 224.234 73.4337 224.714C73.9617 225.194 74.6097 225.434 75.3777 225.434C76.4817 225.434 77.2617 224.972 77.7177 224.048H79.9317C79.6317 224.96 79.0857 225.71 78.2937 226.298C77.5137 226.874 76.5417 227.162 75.3777 227.162C74.4297 227.162 73.5777 226.952 72.8217 226.532C72.0777 226.1 71.4897 225.5 71.0577 224.732C70.6377 223.952 70.4277 223.052 70.4277 222.032C70.4277 221.012 70.6317 220.118 71.0397 219.35C71.4597 218.57 72.0417 217.97 72.7857 217.55C73.5417 217.13 74.4057 216.92 75.3777 216.92C76.3137 216.92 77.1477 217.124 77.8797 217.532C78.6117 217.94 79.1817 218.516 79.5897 219.26C79.9977 219.992 80.2017 220.838 80.2017 221.798ZM78.0597 221.15C78.0477 220.394 77.7777 219.788 77.2497 219.332C76.7217 218.876 76.0677 218.648 75.2877 218.648C74.5797 218.648 73.9737 218.876 73.4697 219.332C72.9657 219.776 72.6657 220.382 72.5697 221.15H78.0597ZM84.2731 218.54C84.6211 218.084 85.0951 217.7 85.6951 217.388C86.2951 217.076 86.9731 216.92 87.7291 216.92C88.5931 216.92 89.3791 217.136 90.0871 217.568C90.8071 217.988 91.3711 218.582 91.7791 219.35C92.1871 220.118 92.3911 221 92.3911 221.996C92.3911 222.992 92.1871 223.886 91.7791 224.678C91.3711 225.458 90.8071 226.07 90.0871 226.514C89.3791 226.946 88.5931 227.162 87.7291 227.162C86.9731 227.162 86.3011 227.012 85.7131 226.712C85.1251 226.4 84.6451 226.016 84.2731 225.56V231.716H82.2211V217.082H84.2731V218.54ZM90.3031 221.996C90.3031 221.312 90.1591 220.724 89.8711 220.232C89.5951 219.728 89.2231 219.35 88.7551 219.098C88.2991 218.834 87.8071 218.702 87.2791 218.702C86.7631 218.702 86.2711 218.834 85.8031 219.098C85.3471 219.362 84.9751 219.746 84.6871 220.25C84.4111 220.754 84.2731 221.348 84.2731 222.032C84.2731 222.716 84.4111 223.316 84.6871 223.832C84.9751 224.336 85.3471 224.72 85.8031 224.984C86.2711 225.248 86.7631 225.38 87.2791 225.38C87.8071 225.38 88.2991 225.248 88.7551 224.984C89.2231 224.708 89.5951 224.312 89.8711 223.796C90.1591 223.28 90.3031 222.68 90.3031 221.996ZM93.7363 221.996C93.7363 221 93.9403 220.118 94.3483 219.35C94.7683 218.582 95.3323 217.988 96.0403 217.568C96.7603 217.136 97.5523 216.92 98.4163 216.92C99.1963 216.92 99.8743 217.076 100.45 217.388C101.038 217.688 101.506 218.066 101.854 218.522V217.082H103.924V227H101.854V225.524C101.506 225.992 101.032 226.382 100.432 226.694C99.8323 227.006 99.1483 227.162 98.3803 227.162C97.5283 227.162 96.7483 226.946 96.0403 226.514C95.3323 226.07 94.7683 225.458 94.3483 224.678C93.9403 223.886 93.7363 222.992 93.7363 221.996ZM101.854 222.032C101.854 221.348 101.71 220.754 101.422 220.25C101.146 219.746 100.78 219.362 100.324 219.098C99.8683 218.834 99.3763 218.702 98.8483 218.702C98.3203 218.702 97.8283 218.834 97.3723 219.098C96.9163 219.35 96.5443 219.728 96.2563 220.232C95.9803 220.724 95.8423 221.312 95.8423 221.996C95.8423 222.68 95.9803 223.28 96.2563 223.796C96.5443 224.312 96.9163 224.708 97.3723 224.984C97.8403 225.248 98.3323 225.38 98.8483 225.38C99.3763 225.38 99.8683 225.248 100.324 224.984C100.78 224.72 101.146 224.336 101.422 223.832C101.71 223.316 101.854 222.716 101.854 222.032ZM108.672 218.522C108.972 218.018 109.368 217.628 109.86 217.352C110.364 217.064 110.958 216.92 111.642 216.92V219.044H111.12C110.316 219.044 109.704 219.248 109.284 219.656C108.876 220.064 108.672 220.772 108.672 221.78V227H106.62V217.082H108.672V218.522ZM115.922 218.756V224.246C115.922 224.618 116.006 224.888 116.174 225.056C116.354 225.212 116.654 225.29 117.074 225.29H118.334V227H116.714C115.79 227 115.082 226.784 114.59 226.352C114.098 225.92 113.852 225.218 113.852 224.246V218.756H112.682V217.082H113.852V214.616H115.922V217.082H118.334V218.756H115.922ZM129.315 221.798C129.315 222.17 129.291 222.506 129.243 222.806H121.665C121.725 223.598 122.019 224.234 122.547 224.714C123.075 225.194 123.723 225.434 124.491 225.434C125.595 225.434 126.375 224.972 126.831 224.048H129.045C128.745 224.96 128.199 225.71 127.407 226.298C126.627 226.874 125.655 227.162 124.491 227.162C123.543 227.162 122.691 226.952 121.935 226.532C121.191 226.1 120.603 225.5 120.171 224.732C119.751 223.952 119.541 223.052 119.541 222.032C119.541 221.012 119.745 220.118 120.153 219.35C120.573 218.57 121.155 217.97 121.899 217.55C122.655 217.13 123.519 216.92 124.491 216.92C125.427 216.92 126.261 217.124 126.993 217.532C127.725 217.94 128.295 218.516 128.703 219.26C129.111 219.992 129.315 220.838 129.315 221.798ZM127.173 221.15C127.161 220.394 126.891 219.788 126.363 219.332C125.835 218.876 125.181 218.648 124.401 218.648C123.693 218.648 123.087 218.876 122.583 219.332C122.079 219.776 121.779 220.382 121.683 221.15H127.173ZM143.34 216.92C144.12 216.92 144.816 217.082 145.428 217.406C146.052 217.73 146.538 218.21 146.886 218.846C147.246 219.482 147.426 220.25 147.426 221.15V227H145.392V221.456C145.392 220.568 145.17 219.89 144.726 219.422C144.282 218.942 143.676 218.702 142.908 218.702C142.14 218.702 141.528 218.942 141.072 219.422C140.628 219.89 140.406 220.568 140.406 221.456V227H138.372V221.456C138.372 220.568 138.15 219.89 137.706 219.422C137.262 218.942 136.656 218.702 135.888 218.702C135.12 218.702 134.508 218.942 134.052 219.422C133.608 219.89 133.386 220.568 133.386 221.456V227H131.334V217.082H133.386V218.216C133.722 217.808 134.148 217.49 134.664 217.262C135.18 217.034 135.732 216.92 136.32 216.92C137.112 216.92 137.82 217.088 138.444 217.424C139.068 217.76 139.548 218.246 139.884 218.882C140.184 218.282 140.652 217.808 141.288 217.46C141.924 217.1 142.608 216.92 143.34 216.92ZM159.128 221.798C159.128 222.17 159.104 222.506 159.056 222.806H151.478C151.538 223.598 151.832 224.234 152.36 224.714C152.888 225.194 153.536 225.434 154.304 225.434C155.408 225.434 156.188 224.972 156.644 224.048H158.857C158.558 224.96 158.012 225.71 157.22 226.298C156.44 226.874 155.468 227.162 154.304 227.162C153.356 227.162 152.504 226.952 151.748 226.532C151.004 226.1 150.416 225.5 149.984 224.732C149.564 223.952 149.354 223.052 149.354 222.032C149.354 221.012 149.558 220.118 149.966 219.35C150.386 218.57 150.968 217.97 151.712 217.55C152.468 217.13 153.332 216.92 154.304 216.92C155.24 216.92 156.074 217.124 156.806 217.532C157.538 217.94 158.108 218.516 158.516 219.26C158.924 219.992 159.128 220.838 159.128 221.798ZM156.986 221.15C156.974 220.394 156.704 219.788 156.176 219.332C155.648 218.876 154.994 218.648 154.214 218.648C153.506 218.648 152.9 218.876 152.396 219.332C151.892 219.776 151.592 220.382 151.496 221.15H156.986ZM166.151 216.92C166.931 216.92 167.627 217.082 168.239 217.406C168.863 217.73 169.349 218.21 169.697 218.846C170.045 219.482 170.219 220.25 170.219 221.15V227H168.185V221.456C168.185 220.568 167.963 219.89 167.519 219.422C167.075 218.942 166.469 218.702 165.701 218.702C164.933 218.702 164.321 218.942 163.865 219.422C163.421 219.89 163.199 220.568 163.199 221.456V227H161.147V217.082H163.199V218.216C163.535 217.808 163.961 217.49 164.477 217.262C165.005 217.034 165.563 216.92 166.151 216.92Z" fill="#CCD2E3"/>
<path d="M45.6207 276.2C44.5807 271.57 40.5407 269.5 37.0007 269.5C37.0007 269.5 37.0007 269.5 36.9907 269.5C33.4607 269.5 29.4307 271.57 28.3807 276.19C27.2007 281.35 30.3607 285.72 33.2207 288.48C34.2807 289.5 35.6407 290.01 37.0007 290.01C38.3607 290.01 39.7207 289.5 40.7707 288.48C43.6307 285.72 46.7907 281.36 45.6207 276.2ZM40.2807 277.03L36.2807 281.03C36.1307 281.18 35.9407 281.25 35.7507 281.25C35.5607 281.25 35.3707 281.18 35.2207 281.03L33.7207 279.53C33.4307 279.24 33.4307 278.76 33.7207 278.47C34.0107 278.18 34.4907 278.18 34.7807 278.47L35.7507 279.44L39.2207 275.97C39.5107 275.68 39.9907 275.68 40.2807 275.97C40.5707 276.26 40.5707 276.74 40.2807 277.03Z" fill="#CCD2E3"/>
<path d="M65.892 283.444H60.654L59.754 286H57.612L62.094 273.472H64.47L68.952 286H66.792L65.892 283.444ZM65.316 281.77L63.282 275.956L61.23 281.77H65.316ZM72.9528 272.68V286H70.9008V272.68H72.9528ZM74.9629 280.996C74.9629 280 75.1669 279.118 75.5749 278.35C75.9949 277.582 76.5589 276.988 77.2669 276.568C77.9869 276.136 78.7789 275.92 79.6429 275.92C80.4229 275.92 81.1009 276.076 81.6769 276.388C82.2649 276.688 82.7329 277.066 83.0809 277.522V276.082H85.1509V286H83.0809V284.524C82.7329 284.992 82.2589 285.382 81.6589 285.694C81.0589 286.006 80.3749 286.162 79.6069 286.162C78.7549 286.162 77.9749 285.946 77.2669 285.514C76.5589 285.07 75.9949 284.458 75.5749 283.678C75.1669 282.886 74.9629 281.992 74.9629 280.996ZM83.0809 281.032C83.0809 280.348 82.9369 279.754 82.6489 279.25C82.3729 278.746 82.0069 278.362 81.5509 278.098C81.0949 277.834 80.6029 277.702 80.0749 277.702C79.5469 277.702 79.0549 277.834 78.5989 278.098C78.1429 278.35 77.7709 278.728 77.4829 279.232C77.2069 279.724 77.0689 280.312 77.0689 280.996C77.0689 281.68 77.2069 282.28 77.4829 282.796C77.7709 283.312 78.1429 283.708 78.5989 283.984C79.0669 284.248 79.5589 284.38 80.0749 284.38C80.6029 284.38 81.0949 284.248 81.5509 283.984C82.0069 283.72 82.3729 283.336 82.6489 282.832C82.9369 282.316 83.0809 281.716 83.0809 281.032ZM99.8521 275.92C100.632 275.92 101.328 276.082 101.94 276.406C102.564 276.73 103.05 277.21 103.398 277.846C103.758 278.482 103.938 279.25 103.938 280.15V286H101.904V280.456C101.904 279.568 101.682 278.89 101.238 278.422C100.794 277.942 100.188 277.702 99.4201 277.702C98.6521 277.702 98.0401 277.942 97.5841 278.422C97.1401 278.89 96.9181 279.568 96.9181 280.456V286H94.8841V280.456C94.8841 279.568 94.6621 278.89 94.2181 278.422C93.7741 277.942 93.1681 277.702 92.4001 277.702C91.6321 277.702 91.0201 277.942 90.5641 278.422C90.1201 278.89 89.8981 279.568 89.8981 280.456V286H87.8461V276.082H89.8981V277.216C90.2341 276.808 90.6601 276.49 91.1761 276.262C91.6921 276.034 92.2441 275.92 92.8321 275.92C93.6241 275.92 94.3321 276.088 94.9561 276.424C95.5801 276.76 96.0601 277.246 96.3961 277.882C96.6961 277.282 97.1641 276.808 97.8001 276.46C98.4361 276.1 99.1201 275.92 99.8521 275.92ZM105.865 280.996C105.865 280 106.069 279.118 106.477 278.35C106.897 277.582 107.461 276.988 108.169 276.568C108.889 276.136 109.681 275.92 110.545 275.92C111.325 275.92 112.003 276.076 112.579 276.388C113.167 276.688 113.635 277.066 113.983 277.522V276.082H116.053V286H113.983V284.524C113.635 284.992 113.161 285.382 112.561 285.694C111.961 286.006 111.277 286.162 110.509 286.162C109.657 286.162 108.877 285.946 108.169 285.514C107.461 285.07 106.897 284.458 106.477 283.678C106.069 282.886 105.865 281.992 105.865 280.996ZM113.983 281.032C113.983 280.348 113.839 279.754 113.551 279.25C113.275 278.746 112.909 278.362 112.453 278.098C111.997 277.834 111.505 277.702 110.977 277.702C110.449 277.702 109.957 277.834 109.501 278.098C109.045 278.35 108.673 278.728 108.385 279.232C108.109 279.724 107.971 280.312 107.971 280.996C107.971 281.68 108.109 282.28 108.385 282.796C108.673 283.312 109.045 283.708 109.501 283.984C109.969 284.248 110.461 284.38 110.977 284.38C111.505 284.38 111.997 284.248 112.453 283.984C112.909 283.72 113.275 283.336 113.551 282.832C113.839 282.316 113.983 281.716 113.983 281.032ZM121.142 277.756V283.246C121.142 283.618 121.226 283.888 121.394 284.056C121.574 284.212 121.874 284.29 122.294 284.29H123.554V286H121.934C121.01 286 120.302 285.784 119.81 285.352C119.318 284.92 119.072 284.218 119.072 283.246V277.756H117.902V276.082H119.072V273.616H121.142V276.082H123.554V277.756H121.142Z" fill="#CCD2E3"/>
<path d="M37.678 346.457C37.9528 346.521 37.9779 346.881 37.7103 346.97L36.1303 347.49C32.1603 348.77 30.0703 347.7 28.7803 343.73L27.5003 339.78C26.2203 335.81 27.2803 333.71 31.2503 332.43L31.7743 332.257C32.1772 332.123 32.5693 332.527 32.4549 332.936C32.3982 333.138 32.3436 333.35 32.2903 333.57L31.3103 337.76C30.2103 342.47 31.8203 345.07 36.5303 346.19L37.678 346.457Z" fill="#CCD2E3"/>
<path d="M42.1702 329.71L40.5002 329.32C37.1602 328.53 35.1702 329.18 34.0002 331.6C33.7002 332.21 33.4602 332.95 33.2602 333.8L32.2802 337.99C31.3002 342.17 32.5902 344.23 36.7602 345.22L38.4402 345.62C39.0202 345.76 39.5602 345.85 40.0602 345.89C43.1802 346.19 44.8402 344.73 45.6802 341.12L46.6602 336.94C47.6402 332.76 46.3602 330.69 42.1702 329.71ZM40.2902 339.83C40.2002 340.17 39.9002 340.39 39.5602 340.39C39.5002 340.39 39.4402 340.38 39.3702 340.37L36.4602 339.63C36.0602 339.53 35.8202 339.12 35.9202 338.72C36.0202 338.32 36.4302 338.08 36.8302 338.18L39.7402 338.92C40.1502 339.02 40.3902 339.43 40.2902 339.83ZM43.2202 336.45C43.1302 336.79 42.8302 337.01 42.4902 337.01C42.4302 337.01 42.3702 337 42.3002 336.99L37.4502 335.76C37.0502 335.66 36.8102 335.25 36.9102 334.85C37.0102 334.45 37.4202 334.21 37.8202 334.31L42.6702 335.54C43.0802 335.63 43.3202 336.04 43.2202 336.45Z" fill="#CCD2E3"/>
<path d="M62.436 332.49C63.768 332.49 64.932 332.748 65.928 333.264C66.936 333.768 67.71 334.5 68.25 335.46C68.802 336.408 69.078 337.518 69.078 338.79C69.078 340.062 68.802 341.166 68.25 342.102C67.71 343.038 66.936 343.758 65.928 344.262C64.932 344.754 63.768 345 62.436 345H58.35V332.49H62.436ZM62.436 343.326C63.9 343.326 65.022 342.93 65.802 342.138C66.582 341.346 66.972 340.23 66.972 338.79C66.972 337.338 66.582 336.204 65.802 335.388C65.022 334.572 63.9 334.164 62.436 334.164H60.402V343.326H62.436ZM70.4277 339.996C70.4277 339 70.6317 338.118 71.0397 337.35C71.4597 336.582 72.0237 335.988 72.7317 335.568C73.4517 335.136 74.2437 334.92 75.1077 334.92C75.8877 334.92 76.5657 335.076 77.1417 335.388C77.7297 335.688 78.1977 336.066 78.5457 336.522V335.082H80.6157V345H78.5457V343.524C78.1977 343.992 77.7237 344.382 77.1237 344.694C76.5237 345.006 75.8397 345.162 75.0717 345.162C74.2197 345.162 73.4397 344.946 72.7317 344.514C72.0237 344.07 71.4597 343.458 71.0397 342.678C70.6317 341.886 70.4277 340.992 70.4277 339.996ZM78.5457 340.032C78.5457 339.348 78.4017 338.754 78.1137 338.25C77.8377 337.746 77.4717 337.362 77.0157 337.098C76.5597 336.834 76.0677 336.702 75.5397 336.702C75.0117 336.702 74.5197 336.834 74.0637 337.098C73.6077 337.35 73.2357 337.728 72.9477 338.232C72.6717 338.724 72.5337 339.312 72.5337 339.996C72.5337 340.68 72.6717 341.28 72.9477 341.796C73.2357 342.312 73.6077 342.708 74.0637 342.984C74.5317 343.248 75.0237 343.38 75.5397 343.38C76.0677 343.38 76.5597 343.248 77.0157 342.984C77.4717 342.72 77.8377 342.336 78.1137 341.832C78.4017 341.316 78.5457 340.716 78.5457 340.032ZM85.7049 336.756V342.246C85.7049 342.618 85.7889 342.888 85.9569 343.056C86.1369 343.212 86.4369 343.29 86.8569 343.29H88.1169V345H86.4969C85.5729 345 84.8649 344.784 84.3729 344.352C83.8809 343.92 83.6349 343.218 83.6349 342.246V336.756H82.4649V335.082H83.6349V332.616H85.7049V335.082H88.1169V336.756H85.7049ZM89.3242 339.996C89.3242 339 89.5282 338.118 89.9362 337.35C90.3562 336.582 90.9202 335.988 91.6282 335.568C92.3482 335.136 93.1402 334.92 94.0042 334.92C94.7842 334.92 95.4622 335.076 96.0382 335.388C96.6262 335.688 97.0942 336.066 97.4422 336.522V335.082H99.5122V345H97.4422V343.524C97.0942 343.992 96.6202 344.382 96.0202 344.694C95.4202 345.006 94.7362 345.162 93.9682 345.162C93.1162 345.162 92.3362 344.946 91.6282 344.514C90.9202 344.07 90.3562 343.458 89.9362 342.678C89.5282 341.886 89.3242 340.992 89.3242 339.996ZM97.4422 340.032C97.4422 339.348 97.2982 338.754 97.0102 338.25C96.7342 337.746 96.3682 337.362 95.9122 337.098C95.4562 336.834 94.9642 336.702 94.4362 336.702C93.9082 336.702 93.4162 336.834 92.9602 337.098C92.5042 337.35 92.1322 337.728 91.8442 338.232C91.5682 338.724 91.4302 339.312 91.4302 339.996C91.4302 340.68 91.5682 341.28 91.8442 341.796C92.1322 342.312 92.5042 342.708 92.9602 342.984C93.4282 343.248 93.9202 343.38 94.4362 343.38C94.9642 343.38 95.4562 343.248 95.9122 342.984C96.3682 342.72 96.7342 342.336 97.0102 341.832C97.2982 341.316 97.4422 340.716 97.4422 340.032ZM108.935 343.344H113.165V345H106.883V332.49H108.935V343.344ZM119.183 345.162C118.247 345.162 117.401 344.952 116.645 344.532C115.889 344.1 115.295 343.5 114.863 342.732C114.431 341.952 114.215 341.052 114.215 340.032C114.215 339.024 114.437 338.13 114.881 337.35C115.325 336.57 115.931 335.97 116.699 335.55C117.467 335.13 118.325 334.92 119.273 334.92C120.221 334.92 121.079 335.13 121.847 335.55C122.615 335.97 123.221 336.57 123.665 337.35C124.109 338.13 124.331 339.024 124.331 340.032C124.331 341.04 124.103 341.934 123.647 342.714C123.191 343.494 122.567 344.1 121.775 344.532C120.995 344.952 120.131 345.162 119.183 345.162ZM119.183 343.38C119.711 343.38 120.203 343.254 120.659 343.002C121.127 342.75 121.505 342.372 121.793 341.868C122.081 341.364 122.225 340.752 122.225 340.032C122.225 339.312 122.087 338.706 121.811 338.214C121.535 337.71 121.169 337.332 120.713 337.08C120.257 336.828 119.765 336.702 119.237 336.702C118.709 336.702 118.217 336.828 117.761 337.08C117.317 337.332 116.963 337.71 116.699 338.214C116.435 338.706 116.303 339.312 116.303 340.032C116.303 341.1 116.573 341.928 117.113 342.516C117.665 343.092 118.355 343.38 119.183 343.38ZM139.68 335.082L136.602 345H134.442L132.444 337.674L130.446 345H128.286L125.19 335.082H127.278L129.348 343.056L131.454 335.082H133.596L135.612 343.02L137.664 335.082H139.68ZM145.515 345.162C144.579 345.162 143.733 344.952 142.977 344.532C142.221 344.1 141.627 343.5 141.195 342.732C140.763 341.952 140.547 341.052 140.547 340.032C140.547 339.024 140.769 338.13 141.213 337.35C141.657 336.57 142.263 335.97 143.031 335.55C143.799 335.13 144.657 334.92 145.605 334.92C146.553 334.92 147.411 335.13 148.179 335.55C148.947 335.97 149.553 336.57 149.997 337.35C150.441 338.13 150.663 339.024 150.663 340.032C150.663 341.04 150.435 341.934 149.979 342.714C149.523 343.494 148.899 344.1 148.107 344.532C147.327 344.952 146.463 345.162 145.515 345.162ZM145.515 343.38C146.043 343.38 146.535 343.254 146.991 343.002C147.459 342.75 147.837 342.372 148.125 341.868C148.413 341.364 148.557 340.752 148.557 340.032C148.557 339.312 148.419 338.706 148.143 338.214C147.867 337.71 147.501 337.332 147.045 337.08C146.589 336.828 146.097 336.702 145.569 336.702C145.041 336.702 144.549 336.828 144.093 337.08C143.649 337.332 143.295 337.71 143.031 338.214C142.767 338.706 142.635 339.312 142.635 340.032C142.635 341.1 142.905 341.928 143.445 342.516C143.997 343.092 144.687 343.38 145.515 343.38ZM157.696 334.92C158.476 334.92 159.172 335.082 159.784 335.406C160.408 335.73 160.894 336.21 161.242 336.846C161.59 337.482 161.764 338.25 161.764 339.15V345H159.73V339.456C159.73 338.568 159.508 337.89 159.064 337.422C158.62 336.942 158.014 336.702 157.246 336.702C156.478 336.702 155.866 336.942 155.41 337.422C154.966 337.89 154.744 338.568 154.744 339.456V345H152.692V335.082H154.744V336.216C155.08 335.808 155.506 335.49 156.022 335.262C156.55 335.034 157.108 334.92 157.696 334.92ZM168.377 334.92C169.145 334.92 169.823 335.076 170.411 335.388C171.011 335.688 171.479 336.066 171.815 336.522V335.082H173.885V345.162C173.885 346.074 173.693 346.884 173.309 347.592C172.925 348.312 172.367 348.876 171.635 349.284C170.915 349.692 170.051 349.896 169.043 349.896C167.699 349.896 166.583 349.578 165.695 348.942C164.807 348.318 164.303 347.466 164.183 346.386H166.217C166.373 346.902 166.703 347.316 167.207 347.628C167.723 347.952 168.335 348.114 169.043 348.114C169.871 348.114 170.537 347.862 171.041 347.358C171.557 346.854 171.815 346.122 171.815 345.162V343.506C171.467 343.974 170.993 344.37 170.393 344.694C169.805 345.006 169.133 345.162 168.377 345.162C167.513 345.162 166.721 344.946 166.001 344.514C165.293 344.07 164.729 343.458 164.309 342.678C163.901 341.886 163.697 340.992 163.697 339.996C163.697 339 163.901 338.118 164.309 337.35C164.729 336.582 165.293 335.988 166.001 335.568C166.721 335.136 167.513 334.92 168.377 334.92ZM171.815 340.032C171.815 339.348 171.671 338.754 171.383 338.25C171.107 337.746 170.741 337.362 170.285 337.098C169.829 336.834 169.337 336.702 168.809 336.702C168.281 336.702 167.789 336.834 167.333 337.098C166.877 337.35 166.505 337.728 166.217 338.232C165.941 338.724 165.803 339.312 165.803 339.996C165.803 340.68 165.941 341.28 166.217 341.796C166.505 342.312 166.877 342.708 167.333 342.984C167.801 343.248 168.293 343.38 168.809 343.38C169.337 343.38 169.829 343.248 170.285 342.984C170.741 342.72 171.107 342.336 171.383 341.832C171.671 341.316 171.815 340.716 171.815 340.032ZM175.896 339.996C175.896 339 176.1 338.118 176.508 337.35C176.928 336.582 177.492 335.988 178.2 335.568C178.92 335.136 179.712 334.92 180.576 334.92C181.356 334.92 182.034 335.076 182.61 335.388C183.198 335.688 183.666 336.066 184.014 336.522V335.082H186.084V345H184.014V343.524C183.666 343.992 183.192 344.382 182.592 344.694C181.992 345.006 181.308 345.162 180.54 345.162C179.688 345.162 178.908 344.946 178.2 344.514C177.492 344.07 176.928 343.458 176.508 342.678C176.1 341.886 175.896 340.992 175.896 339.996ZM184.014 340.032C184.014 339.348 183.87 338.754 183.582 338.25C183.306 337.746 182.94 337.362 182.484 337.098C182.028 336.834 181.536 336.702 181.008 336.702C180.48 336.702 179.988 336.834 179.532 337.098C179.076 337.35 178.704 337.728 178.416 338.232C178.14 338.724 178.002 339.312 178.002 339.996C178.002 340.68 178.14 341.28 178.416 341.796C178.704 342.312 179.076 342.708 179.532 342.984C180 343.248 180.492 343.38 181.008 343.38C181.536 343.38 182.028 343.248 182.484 342.984C182.94 342.72 183.306 342.336 183.582 341.832C183.87 341.316 184.014 340.716 184.014 340.032ZM193.784 334.92C194.564 334.92 195.26 335.082 195.872 335.406C196.496 335.73 196.982 336.21 197.33 336.846C197.678 337.482 197.852 338.25 197.852 339.15V345H195.818V339.456C195.818 338.568 195.596 337.89 195.152 337.422C194.708 336.942 194.102 336.702 193.334 336.702C192.566 336.702 191.954 336.942 191.498 337.422C191.054 337.89 190.832 338.568 190.832 339.456V345H188.78V335.082H190.832V336.216C191.168 335.808 191.594 335.49 192.11 335.262C192.638 335.034 193.196 334.92 193.784 334.92Z" fill="#CCD2E3"/>
<path d="M42.5291 393.27C42.4591 393.26 42.3891 393.26 42.3191 393.27C40.7691 393.22 39.5391 391.95 39.5391 390.39C39.5391 388.8 40.8291 387.5 42.4291 387.5C44.0191 387.5 45.3191 388.79 45.3191 390.39C45.3091 391.95 44.0791 393.22 42.5291 393.27Z" fill="#CCD2E3"/>
<path d="M45.7896 400.2C44.6696 400.95 43.0996 401.23 41.6496 401.04C42.0296 400.22 42.2296 399.31 42.2396 398.35C42.2396 397.35 42.0196 396.4 41.5996 395.57C43.0796 395.37 44.6496 395.65 45.7796 396.4C47.3596 397.44 47.3596 399.15 45.7896 400.2Z" fill="#CCD2E3"/>
<path d="M31.4402 393.27C31.5102 393.26 31.5802 393.26 31.6502 393.27C33.2002 393.22 34.4302 391.95 34.4302 390.39C34.4302 388.79 33.1402 387.5 31.5402 387.5C29.9502 387.5 28.6602 388.79 28.6602 390.39C28.6602 391.95 29.8902 393.22 31.4402 393.27Z" fill="#CCD2E3"/>
<path d="M31.5491 398.35C31.5491 399.32 31.7591 400.24 32.1391 401.07C30.7291 401.22 29.2591 400.92 28.1791 400.21C26.5991 399.16 26.5991 397.45 28.1791 396.4C29.2491 395.68 30.7591 395.39 32.1791 395.55C31.7691 396.39 31.5491 397.34 31.5491 398.35Z" fill="#CCD2E3"/>
<path d="M37.1208 401.37C37.0408 401.36 36.9508 401.36 36.8608 401.37C35.0208 401.31 33.5508 399.8 33.5508 397.94C33.5608 396.04 35.0908 394.5 37.0008 394.5C38.9008 394.5 40.4408 396.04 40.4408 397.94C40.4308 399.8 38.9708 401.31 37.1208 401.37Z" fill="#CCD2E3"/>
<path d="M33.8708 403.44C32.3608 404.45 32.3608 406.11 33.8708 407.11C35.5908 408.26 38.4108 408.26 40.1308 407.11C41.6408 406.1 41.6408 404.44 40.1308 403.44C38.4208 402.29 35.6008 402.29 33.8708 403.44Z" fill="#CCD2E3"/>
<path d="M62.436 391.49C63.768 391.49 64.932 391.748 65.928 392.264C66.936 392.768 67.71 393.5 68.25 394.46C68.802 395.408 69.078 396.518 69.078 397.79C69.078 399.062 68.802 400.166 68.25 401.102C67.71 402.038 66.936 402.758 65.928 403.262C64.932 403.754 63.768 404 62.436 404H58.35V391.49H62.436ZM62.436 402.326C63.9 402.326 65.022 401.93 65.802 401.138C66.582 400.346 66.972 399.23 66.972 397.79C66.972 396.338 66.582 395.204 65.802 394.388C65.022 393.572 63.9 393.164 62.436 393.164H60.402V402.326H62.436ZM70.4277 398.996C70.4277 398 70.6317 397.118 71.0397 396.35C71.4597 395.582 72.0237 394.988 72.7317 394.568C73.4517 394.136 74.2437 393.92 75.1077 393.92C75.8877 393.92 76.5657 394.076 77.1417 394.388C77.7297 394.688 78.1977 395.066 78.5457 395.522V394.082H80.6157V404H78.5457V402.524C78.1977 402.992 77.7237 403.382 77.1237 403.694C76.5237 404.006 75.8397 404.162 75.0717 404.162C74.2197 404.162 73.4397 403.946 72.7317 403.514C72.0237 403.07 71.4597 402.458 71.0397 401.678C70.6317 400.886 70.4277 399.992 70.4277 398.996ZM78.5457 399.032C78.5457 398.348 78.4017 397.754 78.1137 397.25C77.8377 396.746 77.4717 396.362 77.0157 396.098C76.5597 395.834 76.0677 395.702 75.5397 395.702C75.0117 395.702 74.5197 395.834 74.0637 396.098C73.6077 396.35 73.2357 396.728 72.9477 397.232C72.6717 397.724 72.5337 398.312 72.5337 398.996C72.5337 399.68 72.6717 400.28 72.9477 400.796C73.2357 401.312 73.6077 401.708 74.0637 401.984C74.5317 402.248 75.0237 402.38 75.5397 402.38C76.0677 402.38 76.5597 402.248 77.0157 401.984C77.4717 401.72 77.8377 401.336 78.1137 400.832C78.4017 400.316 78.5457 399.716 78.5457 399.032ZM85.7049 395.756V401.246C85.7049 401.618 85.7889 401.888 85.9569 402.056C86.1369 402.212 86.4369 402.29 86.8569 402.29H88.1169V404H86.4969C85.5729 404 84.8649 403.784 84.3729 403.352C83.8809 402.92 83.6349 402.218 83.6349 401.246V395.756H82.4649V394.082H83.6349V391.616H85.7049V394.082H88.1169V395.756H85.7049ZM89.3242 398.996C89.3242 398 89.5282 397.118 89.9362 396.35C90.3562 395.582 90.9202 394.988 91.6282 394.568C92.3482 394.136 93.1402 393.92 94.0042 393.92C94.7842 393.92 95.4622 394.076 96.0382 394.388C96.6262 394.688 97.0942 395.066 97.4422 395.522V394.082H99.5122V404H97.4422V402.524C97.0942 402.992 96.6202 403.382 96.0202 403.694C95.4202 404.006 94.7362 404.162 93.9682 404.162C93.1162 404.162 92.3362 403.946 91.6282 403.514C90.9202 403.07 90.3562 402.458 89.9362 401.678C89.5282 400.886 89.3242 399.992 89.3242 398.996ZM97.4422 399.032C97.4422 398.348 97.2982 397.754 97.0102 397.25C96.7342 396.746 96.3682 396.362 95.9122 396.098C95.4562 395.834 94.9642 395.702 94.4362 395.702C93.9082 395.702 93.4162 395.834 92.9602 396.098C92.5042 396.35 92.1322 396.728 91.8442 397.232C91.5682 397.724 91.4302 398.312 91.4302 398.996C91.4302 399.68 91.5682 400.28 91.8442 400.796C92.1322 401.312 92.5042 401.708 92.9602 401.984C93.4282 402.248 93.9202 402.38 94.4362 402.38C94.9642 402.38 95.4562 402.248 95.9122 401.984C96.3682 401.72 96.7342 401.336 97.0102 400.832C97.2982 400.316 97.4422 399.716 97.4422 399.032ZM115.631 395.216C115.631 395.852 115.481 396.452 115.181 397.016C114.881 397.58 114.401 398.042 113.741 398.402C113.081 398.75 112.235 398.924 111.203 398.924H108.935V404H106.883V391.49H111.203C112.163 391.49 112.973 391.658 113.633 391.994C114.305 392.318 114.803 392.762 115.127 393.326C115.463 393.89 115.631 394.52 115.631 395.216ZM111.203 397.25C111.983 397.25 112.565 397.076 112.949 396.728C113.333 396.368 113.525 395.864 113.525 395.216C113.525 393.848 112.751 393.164 111.203 393.164H108.935V397.25H111.203ZM126.678 398.798C126.678 399.17 126.654 399.506 126.606 399.806H119.028C119.088 400.598 119.382 401.234 119.91 401.714C120.438 402.194 121.086 402.434 121.854 402.434C122.958 402.434 123.738 401.972 124.194 401.048H126.408C126.108 401.96 125.562 402.71 124.77 403.298C123.99 403.874 123.018 404.162 121.854 404.162C120.906 404.162 120.054 403.952 119.298 403.532C118.554 403.1 117.966 402.5 117.534 401.732C117.114 400.952 116.904 400.052 116.904 399.032C116.904 398.012 117.108 397.118 117.516 396.35C117.936 395.57 118.518 394.97 119.262 394.55C120.018 394.13 120.882 393.92 121.854 393.92C122.79 393.92 123.624 394.124 124.356 394.532C125.088 394.94 125.658 395.516 126.066 396.26C126.474 396.992 126.678 397.838 126.678 398.798ZM124.536 398.15C124.524 397.394 124.254 396.788 123.726 396.332C123.198 395.876 122.544 395.648 121.764 395.648C121.056 395.648 120.45 395.876 119.946 396.332C119.442 396.776 119.142 397.382 119.046 398.15H124.536ZM130.75 390.68V404H128.698V390.68H130.75ZM132.76 398.996C132.76 398 132.964 397.118 133.372 396.35C133.792 395.582 134.356 394.988 135.064 394.568C135.784 394.136 136.576 393.92 137.44 393.92C138.22 393.92 138.898 394.076 139.474 394.388C140.062 394.688 140.53 395.066 140.878 395.522V394.082H142.948V404H140.878V402.524C140.53 402.992 140.056 403.382 139.456 403.694C138.856 404.006 138.172 404.162 137.404 404.162C136.552 404.162 135.772 403.946 135.064 403.514C134.356 403.07 133.792 402.458 133.372 401.678C132.964 400.886 132.76 399.992 132.76 398.996ZM140.878 399.032C140.878 398.348 140.734 397.754 140.446 397.25C140.17 396.746 139.804 396.362 139.348 396.098C138.892 395.834 138.4 395.702 137.872 395.702C137.344 395.702 136.852 395.834 136.396 396.098C135.94 396.35 135.568 396.728 135.28 397.232C135.004 397.724 134.866 398.312 134.866 398.996C134.866 399.68 135.004 400.28 135.28 400.796C135.568 401.312 135.94 401.708 136.396 401.984C136.864 402.248 137.356 402.38 137.872 402.38C138.4 402.38 138.892 402.248 139.348 401.984C139.804 401.72 140.17 401.336 140.446 400.832C140.734 400.316 140.878 399.716 140.878 399.032ZM157.649 393.92C158.429 393.92 159.125 394.082 159.737 394.406C160.361 394.73 160.847 395.21 161.195 395.846C161.555 396.482 161.735 397.25 161.735 398.15V404H159.701V398.456C159.701 397.568 159.479 396.89 159.035 396.422C158.591 395.942 157.985 395.702 157.217 395.702C156.449 395.702 155.837 395.942 155.381 396.422C154.937 396.89 154.715 397.568 154.715 398.456V404H152.681V398.456C152.681 397.568 152.459 396.89 152.015 396.422C151.571 395.942 150.965 395.702 150.197 395.702C149.429 395.702 148.817 395.942 148.361 396.422C147.917 396.89 147.695 397.568 147.695 398.456V404H145.643V394.082H147.695V395.216C148.031 394.808 148.457 394.49 148.973 394.262C149.489 394.034 150.041 393.92 150.629 393.92C151.421 393.92 152.129 394.088 152.753 394.424C153.377 394.76 153.857 395.246 154.193 395.882C154.493 395.282 154.961 394.808 155.597 394.46C156.233 394.1 156.917 393.92 157.649 393.92ZM163.662 398.996C163.662 398 163.866 397.118 164.274 396.35C164.694 395.582 165.258 394.988 165.966 394.568C166.686 394.136 167.478 393.92 168.342 393.92C169.122 393.92 169.8 394.076 170.376 394.388C170.964 394.688 171.432 395.066 171.78 395.522V394.082H173.85V404H171.78V402.524C171.432 402.992 170.958 403.382 170.358 403.694C169.758 404.006 169.074 404.162 168.306 404.162C167.454 404.162 166.674 403.946 165.966 403.514C165.258 403.07 164.694 402.458 164.274 401.678C163.866 400.886 163.662 399.992 163.662 398.996ZM171.78 399.032C171.78 398.348 171.636 397.754 171.348 397.25C171.072 396.746 170.706 396.362 170.25 396.098C169.794 395.834 169.302 395.702 168.774 395.702C168.246 395.702 167.754 395.834 167.298 396.098C166.842 396.35 166.47 396.728 166.182 397.232C165.906 397.724 165.768 398.312 165.768 398.996C165.768 399.68 165.906 400.28 166.182 400.796C166.47 401.312 166.842 401.708 167.298 401.984C167.766 402.248 168.258 402.38 168.774 402.38C169.302 402.38 169.794 402.248 170.25 401.984C170.706 401.72 171.072 401.336 171.348 400.832C171.636 400.316 171.78 399.716 171.78 399.032ZM178.597 395.522C178.897 395.018 179.293 394.628 179.785 394.352C180.289 394.064 180.883 393.92 181.567 393.92V396.044H181.045C180.241 396.044 179.629 396.248 179.209 396.656C178.801 397.064 178.597 397.772 178.597 398.78V404H176.545V394.082H178.597V395.522Z" fill="#CCD2E3"/>
</svg>
